<?xml version="1.0" encoding="utf-8"?>
<!-- Generator: Adobe Illustrator 25.0.0, SVG Export Plug-In . SVG Version: 6.00 Build 0)  -->
<svg version="1.1" id="Layer_1" xmlns="http://www.w3.org/2000/svg" xmlns:xlink="http://www.w3.org/1999/xlink" x="0px" y="0px"
	 viewBox="0 0 1500 1328.37" style="enable-background:new 0 0 1500 1328.37;" xml:space="preserve">
<style type="text/css">
	.st0{fill:#FC4750;}
</style>
<path class="st0" d="M1269.35,559.49l-229.07-138.21C910.96,344.4,867.43,276.42,867.43,199.52c0-26.54,5.86-50.7,16.19-71.76
	c25.14-51.22,92.94-66.12,139.91-33.71c106.75,73.66,207.66,212.12,301,426.17h1.84V0H0v520.22h1.84
	C140.2,202.91,295.15,51.65,459.33,31.36v1267.33H293.31v29.51h702.53c3.13,0.04,6.27,0.18,9.49,0.18c2.4,0,4.63-0.13,6.91-0.18
	h18.97c278-9.85,468.79-181.88,468.79-415.72C1500,753.61,1416.13,646.86,1269.35,559.49 M877.89,1206.4
	c-7.63-14.6-11.64-30.8-11.68-47.27l-1.04-387.75c0.01,0.01,0.03,0.01,0.04,0.03c1.9,0.97,3.82,2.23,5.71,3.18l199.21,108.33
	c101.36,54.03,146.79,125.82,146.79,209.71c0,111.83-90.87,193.81-215.09,193.81c-50.46-0.01-96.76-28.06-120.14-72.8L877.89,1206.4
	z"/>
</svg>
