<?xml version="1.0" encoding="utf-8"?>
<!-- Generator: Adobe Illustrator 25.0.0, SVG Export Plug-In . SVG Version: 6.00 Build 0)  -->
<svg version="1.1" id="Layer_1" xmlns="http://www.w3.org/2000/svg" xmlns:xlink="http://www.w3.org/1999/xlink" x="0px" y="0px"
	 viewBox="0 0 1219.54 1080" style="enable-background:new 0 0 1219.54 1080;" xml:space="preserve">
<style type="text/css">
	.st0{fill:#FEDFED;}
</style>
<path class="st0" d="M1032.01,454.88L845.77,342.52c-105.13-62.51-140.53-117.78-140.53-180.3c0-21.58,4.76-41.22,13.16-58.34
	c20.44-41.65,75.57-53.76,113.75-27.41c86.79,59.89,168.83,172.46,244.72,346.49h1.5V0H0v422.95h1.5
	C113.99,164.97,239.97,41.99,373.45,25.49v1030.37H238.47v23.99h571.18c2.55,0.04,5.09,0.14,7.71,0.14c1.95,0,3.76-0.11,5.62-0.14
	h15.43c226.02-8.01,381.14-147.87,381.14-337.99C1219.54,612.7,1151.35,525.91,1032.01,454.88 M713.75,980.83
	c-6.2-11.87-9.46-25.04-9.5-38.43l-0.85-315.25c0.01,0.01,0.02,0.01,0.04,0.02c1.55,0.79,3.11,1.81,4.64,2.58l161.96,88.07
	c82.41,43.93,119.34,102.3,119.34,170.5c0,90.92-73.88,157.57-174.88,157.57c-41.03-0.01-78.67-22.82-97.68-59.19L713.75,980.83z"/>
</svg>
