<?xml version="1.0" encoding="utf-8"?>
<!-- Generator: Adobe Illustrator 25.0.0, SVG Export Plug-In . SVG Version: 6.00 Build 0)  -->
<svg version="1.1" id="Layer_1" xmlns="http://www.w3.org/2000/svg" xmlns:xlink="http://www.w3.org/1999/xlink" x="0px" y="0px"
	 viewBox="0 0 1662.7 1306.13" style="enable-background:new 0 0 1662.7 1306.13;" xml:space="preserve">
<style type="text/css">
	.st0{fill:#FEDFED;}
</style>
<path class="st0" d="M1662.4,167.08c-0.48-1.94-1.24-3.94-2.33-5.83c-1.09-1.89-2.53-3.61-4.11-5.04c-3.2-2.85-6.75-4.43-9.98-5.43
	c-3.26-1-6.35-1.49-9.31-1.79c-2.97-0.3-5.84-0.38-8.65-0.38c-5.61,0.03-11.01,0.42-16.34,0.94c-5.32,0.52-10.57,1.18-15.77,1.89
	c-20.78,2.89-41.12,6.3-61.52,8.95c-40.72,5.41-81.64,8.08-122.13,4.99c-5.08-0.38-10.05-0.85-15.19-1.4
	c-2.73-0.24-5.46-0.55-8.21-0.66c-1.37-0.07-2.74-0.18-4.11-0.21l-4.12-0.09c-5.49-0.05-11,0.09-16.48,0.58
	c-5.49,0.41-10.95,1.19-16.38,2.13c-10.85,1.99-21.55,4.96-31.82,9.09c-2.59,0.98-5.11,2.14-7.64,3.25c-1.27,0.56-2.5,1.2-3.75,1.8
	c-1.24,0.61-2.52,1.21-3.67,1.84c-4.75,2.47-9.44,5.03-14.06,7.69c-18.48,10.65-35.95,22.76-52.64,35.74
	c-16.71,12.97-32.59,26.89-47.86,41.41l-0.29,0.27l-0.37,0.41c-4.35,4.89-9.14,9.75-14.03,14.59c-4.9,4.84-9.91,9.66-14.96,14.5
	c-10.09,9.68-20.25,19.43-30.27,29.38c-9.88,9.8-19.61,19.8-29.13,30.02c-0.48-5.54-0.92-11.07-1.28-16.61
	c-0.99-15.77-1.46-31.54-0.83-47.08c0.33-7.76,0.9-15.48,1.96-23c1-7.37,2.49-14.57,4.61-21.29c14.01-30.83,30.66-60.44,50.61-87.63
	c0.51-0.7,1.04-1.38,1.55-2.08c0.08,0.12,0.15,0.23,0.23,0.35c2.48,3.74,5.29,7.63,9.02,11.06c3.7,3.45,8.35,6.11,13.05,7.72
	c4.72,1.6,9.47,2.38,14.08,2.74c9.25,0.71,18.13,0.06,26.89-0.84c8.75-0.96,17.37-2.29,25.94-3.78l0.31-0.05l0.37-0.11
	c19.05-5.66,37.89-12.45,55.96-21.21c18.04-8.76,35.34-19.49,50.82-32.62c15.48-13.1,29.03-28.55,40.16-45.48
	c11.17-16.92,19.97-35.2,27.11-53.92l3.09-8.09l-8.43-2.08c-4.92-1.22-9.53-1.79-14.14-2.17c-4.6-0.38-9.15-0.52-13.68-0.5
	c-9.06,0.04-18.03,0.72-26.92,1.84c-8.89,1.14-17.71,2.73-26.41,4.75c-8.71,2-17.32,4.41-25.79,7.22
	c-33.92,11.18-65.72,28.4-94.08,49.95c-22.74,17.27-43.24,37.31-61.48,59.16c-3.06-4.08-6.34-8.05-9.86-11.75
	c-6.14-6.52-12.93-12.41-20-17.68c-13.84-10.49-28.3-20.26-43.19-29.22C1017.31,37.5,950.32,14.4,881.57,4.84
	c-34.39-4.77-69.27-6.09-103.93-3.61c-34.64,2.48-69.08,8.71-102.22,19.37c-33.12,10.63-64.91,25.78-93.56,45.7
	c-28.66,19.87-53.98,44.74-73.91,73.46l-0.23,0.33l-0.17,0.37c-3.62,8.09-7.88,15.92-12.98,23.03c-0.61-1.61-1.22-3.21-1.81-4.82
	l-2.06-5.48c-0.79-1.89-1.48-3.82-2.35-5.67l-1.27-2.8l-1.37-2.75c-0.89-1.85-1.93-3.61-2.91-5.41c-2.07-3.53-4.25-7-6.68-10.29
	c-4.77-6.65-10.3-12.73-16.34-18.23c-1.51-1.38-3.08-2.68-4.65-3.99c-1.61-1.25-3.19-2.56-4.86-3.73c-0.83-0.6-1.65-1.21-2.49-1.79
	l-2.55-1.7c-0.86-0.58-1.69-1.11-2.52-1.63l-2.49-1.57c-6.66-4.16-13.44-8.2-20.37-12c-13.85-7.63-28.37-14.17-43.3-19.45
	c-7.47-2.64-15.03-4.98-22.66-7.05c-7.63-2.05-15.33-3.81-23.06-5.35c-30.96-6.11-62.4-8.38-93.69-8.79l-6.27-0.08l1.44,5.99
	c0.63,2.6,1.51,4.46,2.42,6.34c0.91,1.85,1.89,3.58,2.89,5.27c2.02,3.38,4.16,6.59,6.36,9.74c4.42,6.28,9.1,12.29,13.93,18.17
	c9.67,11.74,19.95,22.91,30.68,33.62c10.75,10.7,21.97,20.93,33.74,30.54c11.77,9.6,24.08,18.6,37.09,26.61
	c13.01,7.97,26.74,15.01,41.42,19.95c7.33,2.46,14.91,4.38,22.67,5.46c7.76,1.07,15.72,1.29,23.61,0.29
	c7.89-0.98,15.68-3.23,22.86-6.75c6.96-3.38,13.3-7.91,18.89-13.13l0.58,1.64l3.74,10.99c4.91,14.67,9.53,29.42,13.74,44.27
	c8.38,29.69,15.27,59.83,18.51,90.19c1.46,14.48,2.12,29.03,1.11,43.31c-0.99-1.23-1.98-2.46-2.98-3.68l-3.95-4.84l-1.98-2.42
	l-2.05-2.45c-2.75-3.25-5.43-6.59-8.24-9.77c-2.97-3.19-5.57-6.04-8.2-9.07c-10.53-11.98-20.2-24.71-29.55-37.98
	c-9.39-13.25-18.45-27.13-28.92-40.77c-5.25-6.8-10.85-13.53-17.04-19.87c-6.16-6.36-12.9-12.3-20.08-17.64
	c-3.6-2.66-7.31-5.16-11.09-7.52c-3.8-2.33-7.67-4.53-11.6-6.57c-7.87-4.05-15.96-7.5-24.14-10.48
	c-16.38-5.89-33.07-9.97-49.75-13.05c-16.69-3.09-33.4-5.16-50.09-6.75l-1.02-0.1l-0.98,0.07c-30.93,2.24-61.77,4.34-92.3,4.3
	c-30.53,0.04-60.73-2.49-90.17-9.07c-7.36-1.64-14.67-3.51-21.93-5.6c-1.82-0.52-3.63-1.04-5.44-1.6l-2.71-0.83l-1.36-0.42
	l-1.03-0.3l-1.21-0.32c-3.28-0.76-6.82-0.89-10.12-0.35c-3.31,0.55-6.39,1.67-9.05,3.14c-2.68,1.47-5.01,3.25-7.03,5.2
	c-2.02,1.95-3.78,4.06-5.27,6.31c-2.98,4.49-5.08,9.46-6.06,14.95c-0.14,0.68-0.21,1.38-0.31,2.08l-0.16,1.61
	c-0.1,1.05-0.22,2.1-0.29,3.15c-0.16,2.1-0.3,4.19-0.36,6.28c-0.15,4.18-0.17,8.34,0,12.48c0.61,16.57,3.5,32.82,8.02,48.52
	c4.54,15.7,10.8,30.83,18.46,45.16c15.33,28.7,36.49,54,61.13,74.79c24.69,20.8,52.77,37.13,82.26,49.33
	c7.38,3.05,14.83,5.9,22.38,8.45c7.52,2.62,15.15,4.9,22.79,7.07c15.32,4.24,30.83,7.65,46.43,10.32l46.21,7.3
	c15.42,2.39,30.9,4.66,46.48,6.55c15.59,1.86,31.26,3.44,47.23,3.94c4,0.1,8.01,0.17,12.07,0.07c2.02-0.01,4.08-0.14,6.11-0.22
	c2.07-0.16,4.11-0.26,6.21-0.51c2.06-0.19,4.24-0.54,6.3-0.86l5.74-1c3.85-0.67,7.75-1.37,11.66-2.15
	c7.83-1.56,15.73-3.47,23.54-6.09c7.79-2.65,15.5-6.02,22.72-10.45c7.2-4.44,13.9-9.91,19.54-16.33c2.85-3.18,5.4-6.61,7.71-10.17
	c2.34-3.54,4.32-7.28,6.13-11.07c0.48-1.05,0.95-2.1,1.4-3.16c3.33,4.49,6.63,9,9.87,13.54c18.88,26.47,36.4,53.84,51.31,82.38
	c14.9,28.51,27.24,58.25,34.82,88.94c3.78,15.34,6.36,30.89,7.46,46.51c1.12,15.62,0.75,31.3-1.01,46.89
	c-1.78,15.6-4.93,31.11-9.01,46.61c-3.96,15.21-8.8,30.43-13.54,46.05c-4.67,10.22-8.72,20.64-12.31,31.15
	c-3.72,10.83-6.85,21.79-9.6,32.8c-2.76,11.01-5.14,22.09-7.12,33.21c-2,11.11-3.73,22.26-5.08,33.43
	c-2.78,22.34-4.4,44.76-5.08,67.2c-0.32,11.22-0.41,22.44-0.26,33.67c0.18,11.23,0.6,22.45,1.29,33.68
	c0.68,11.08,1.63,22.16,2.92,33.25c-2.57-7.2-5.06-14.44-7.43-21.72c-1.26-3.77-2.47-7.56-3.65-11.36l-1.8-5.69l-1.7-5.61l-1.69-5.6
	c-0.27-0.94-0.59-1.86-0.82-2.81l-0.66-2.84l-2.64-11.5c-1.77-7.79-3.47-15.6-5.13-23.42c-3.32-15.64-6.39-31.33-9.31-47.05
	c-5.79-31.45-10.73-63.06-14.88-94.79c-4.18-31.74-7.52-63.59-10.61-95.55l-4.66-48.03c-1.63-16.04-3.37-32.13-5.76-48.26
	c-1.2-8.06-2.58-16.14-4.29-24.22c-1.74-8.08-3.77-16.16-6.53-24.17l-0.51-1.49l-0.36-1.11c-0.21-0.74-0.44-1.49-0.58-2.25
	c-0.31-1.51-0.52-3.05-0.54-4.59c-0.04-1.99,0.17-3.99,0.6-5.94c0.21,0.22,0.42,0.44,0.63,0.66l0.9,0.99
	c0.03,0.03,0.15,0.21,0.27,0.43c0.26,0.46,0.57,1.17,0.83,1.94c0.55,1.55,1.01,3.37,1.44,5.22c0.42,1.87,0.81,3.8,1.22,5.78
	c0.42,2,0.81,4.01,1.43,6.23c0.16,0.57,0.33,1.13,0.55,1.77c0.1,0.3,0.24,0.65,0.37,0.98l0.34,0.78l0.68,1.53l0.75,1.5
	c1.02,1.99,2.16,3.93,3.45,5.77c5.09,7.44,12.19,13.34,19.94,17.45c7.77,4.14,16.17,6.62,24.61,8c8.45,1.36,17,1.62,25.48,0.92
	c8.48-0.74,16.92-2.36,25.2-5.57c4.13-1.66,8.25-3.67,12.19-6.97c0.98-0.83,1.94-1.77,2.86-2.85l0.68-0.83
	c0.27-0.38,0.54-0.78,0.8-1.18c0.22-0.38,0.43-0.77,0.63-1.16l0.49-1.13c1.13-2.96,1.4-5.54,1.52-7.96
	c0.18-4.84-0.41-9.21-1.25-13.51c-0.87-4.3-2.01-8.45-3.69-12.71c-0.21-0.53-0.45-1.08-0.68-1.62l-0.71-1.53
	c-0.49-1.01-1-2.02-1.56-3.01c-1.1-1.98-2.31-3.91-3.64-5.76c-2.65-3.7-5.78-7.07-9.22-10.02c-6.9-5.92-14.99-10.05-23.23-12.84
	c-8.27-2.79-16.74-4.33-25.16-5.12c-8.43-0.78-16.82-0.82-25.14-0.37c-4.16,0.23-8.3,0.58-12.42,1.04l-3.12,0.37
	c-1.22,0.17-2.44,0.38-3.65,0.66c-2.42,0.56-4.8,1.35-7.08,2.38c-4.57,2.06-8.7,5.07-12.1,8.73c-0.59,0.63-1.14,1.29-1.68,1.96
	c-5.29-3.38-11.09-6.11-17.28-7.75c-8.51-2.29-17.66-2.37-26.15-0.35c-8.51,1.99-16.33,5.8-23.36,10.44
	c-3.49,2.36-6.88,4.84-10.03,7.56c-1.63,1.31-3.11,2.76-4.67,4.13c-1.49,1.44-3,2.86-4.44,4.34c-5.79,5.9-11.08,12.18-16.03,18.69
	c-9.89,13.02-18.41,26.9-26.21,41.08c-3.92,7.09-7.57,14.31-11.17,21.55c-3.52,7.28-6.97,14.58-10.22,21.96
	c-6.54,14.76-12.61,29.7-18.33,44.76c-11.43,30.13-21.52,60.72-30.81,91.52l2.68,0.84c10.06-30.51,20.76-60.8,32.79-90.54
	c6.02-14.86,12.37-29.58,19.18-44.07c3.37-7.26,6.93-14.42,10.55-21.55c3.69-7.09,7.44-14.14,11.44-21.05
	c7.95-13.82,16.59-27.24,26.37-39.66c4.89-6.2,10.09-12.14,15.66-17.62c1.39-1.37,2.83-2.68,4.26-4.01c1.48-1.26,2.9-2.59,4.43-3.78
	c2.98-2.49,6.13-4.7,9.33-6.78c6.44-4.09,13.38-7.26,20.58-8.81c7.19-1.56,14.59-1.34,21.58,0.65c5.16,1.46,10.07,3.86,14.63,6.92
	c-0.32,0.72-0.63,1.44-0.91,2.17c-1.79,4.63-2.63,9.61-2.6,14.57c0.01,2.48,0.29,4.95,0.76,7.38c0.22,1.22,0.54,2.41,0.87,3.6
	l0.55,1.76l0.45,1.37c4.74,14.49,7.43,30.06,9.6,45.73c2.14,15.7,3.67,31.61,5.1,47.56l4.08,48.02c2.7,32.08,5.78,64.21,9.65,96.26
	c3.86,32.06,8.52,64.05,14.04,95.9c2.77,15.92,5.77,31.81,8.98,47.65c1.62,7.92,3.26,15.83,4.99,23.73l2.65,12.02l0.68,3.04
	c0.24,1.01,0.56,1.99,0.84,2.98l1.74,5.95l1.74,5.94l1.78,5.82c1.18,3.88,2.37,7.76,3.63,11.62c2.45,7.74,5.03,15.45,7.7,23.13
	c5.35,15.36,11.14,30.61,17.54,45.65c6.42,15.04,13.36,29.91,21.29,44.37c3.91,7.25,8.15,14.36,12.52,21.4
	c4.47,6.99,9.16,13.87,14.15,20.57c10.09,13.32,21.39,25.99,34.46,37.01c6.53,5.5,13.48,10.59,20.82,15.12
	c7.35,4.52,15.09,8.45,23.11,11.71c8.02,3.27,16.31,5.85,24.7,7.78c8.4,1.92,16.91,3.14,25.4,3.84c16.99,1.41,33.82,0.57,50.25-1.14
	c16.44-1.74,32.52-4.41,48.39-7.04l5.91-0.98l2.74-0.45c0.91-0.15,1.81-0.32,2.82-0.4l5.91-0.64l6.23-0.82
	c8.3-1.19,16.57-2.76,24.75-4.73c16.37-3.93,32.42-9.52,47.71-16.8c15.28-7.28,29.79-16.24,43.12-26.64
	c13.35-10.39,25.52-22.19,36.49-34.92c10.97-12.73,20.72-26.4,29.39-40.64c17.33-28.5,30.32-59.16,40.44-90.45
	c10.1-31.32,17.29-63.37,22.51-95.6c5.21-32.25,8.43-64.71,10.18-97.2c1.74-32.49,1.98-65.02,0.9-97.51
	c-0.55-16.25-1.45-32.48-2.77-48.73c-0.33-4.06-0.69-8.13-1.09-12.2c-0.39-4.06-0.85-8.22-1.28-12.13l-2.49-23.91
	c-1.68-16.02-3.26-32.18-6.12-48.73c-0.53-2.98-1.1-5.97-1.74-8.97c0.84-1.51,1.67-3.04,2.45-4.58
	c8.03-15.92,12.51-33.4,13.61-50.91c0.56-8.76,0.3-17.54-0.71-26.21c-0.26-2.17-0.56-4.33-0.9-6.48l-0.56-3.21l-0.55-2.98
	l-2.21-11.88c-5.92-31.6-11.77-63.06-16.69-94.62c-2.43-15.64-4.66-31.29-6.54-46.96c13.5-15.44,27.59-30.41,42.08-45.06
	c9.75-9.87,19.7-19.59,29.73-29.39c5.01-4.9,10.04-9.83,15.05-14.87c4.89-4.93,9.76-9.95,14.55-15.41
	c14.57-14.09,29.7-27.59,45.55-40.12c15.92-12.64,32.53-24.34,49.89-34.59c4.34-2.56,8.72-5.02,13.15-7.38
	c1.12-0.62,2.18-1.13,3.26-1.68c1.08-0.53,2.15-1.1,3.25-1.6c2.2-0.99,4.38-2.03,6.64-2.91c8.93-3.7,18.28-6.41,27.81-8.26
	c4.77-0.88,9.58-1.62,14.43-2.03c4.84-0.48,9.71-0.66,14.58-0.66l3.66,0.04c1.22,0.01,2.44,0.1,3.65,0.15
	c2.44,0.07,4.87,0.33,7.3,0.51c5.18,0.5,10.54,0.96,15.8,1.3c21.15,1.38,42.33,1.29,63.36,0.07c21.04-1.22,41.94-3.57,62.64-6.54
	c20.7-2.93,41.24-6.62,61.5-9.67c5.06-0.75,10.1-1.44,15.09-1.98c4.99-0.55,9.93-0.95,14.69-1.03c2.37-0.03,4.7,0.02,6.89,0.21
	c2.19,0.18,4.25,0.53,5.96,1.03c1.72,0.49,2.97,1.18,3.67,1.78c0.48,0.44,0.8,0.84,1.07,1.46c-1.16,35.87-5.47,71.7-15.48,105.86
	c-5.11,17.28-11.68,34.09-20.09,49.91c-8.39,15.82-18.65,30.59-30.71,43.75c-6.03,6.58-12.49,12.77-19.34,18.5
	c-6.87,5.72-14.12,10.99-21.68,15.81c-7.55,4.83-15.43,9.18-23.54,13.09c-8.11,3.91-16.43,7.43-24.93,10.51
	c-17,6.2-34.62,10.84-52.5,14.41c-8.94,1.78-17.96,3.29-27.01,4.62c-4.53,0.65-9.07,1.27-13.62,1.83l-6.91,0.87
	c-2.33,0.28-4.65,0.66-6.98,0.99c-37.13,5.74-73.25,18.08-105.85,36.67c-16.3,9.28-31.69,20.16-45.87,32.41
	c-14.14,12.26-27.24,25.82-38.43,40.92c-5.6,7.54-10.71,15.45-15.2,23.72c-4.5,8.26-8.3,16.91-11.39,25.79
	c-6.23,17.77-9.13,36.67-8.71,55.43c0.41,18.78,4.15,37.35,10.41,54.93c3.13,8.79,6.89,17.35,11.23,25.59
	c2.18,4.12,4.47,8.17,6.94,12.12c2.47,3.96,5.04,7.81,7.95,11.55l2.21-1.74c-2.68-3.61-5.17-7.51-7.5-11.43
	c-2.34-3.93-4.52-7.97-6.57-12.06c-4.08-8.2-7.62-16.66-10.51-25.33c-5.79-17.33-9.06-35.51-9.1-53.7
	c-0.05-18.18,3.12-36.31,9.4-53.32c3.13-8.5,6.93-16.76,11.4-24.65c4.47-7.89,9.54-15.44,15.08-22.64
	c11.08-14.4,24.03-27.36,38-39.04c13.98-11.66,29.1-21.94,45.05-30.68c31.89-17.52,67.05-28.89,103.01-33.87
	c2.25-0.29,4.5-0.62,6.75-0.86l6.85-0.76c4.63-0.5,9.25-1.06,13.87-1.65c9.24-1.21,18.47-2.62,27.67-4.31
	c18.39-3.4,36.67-7.9,54.49-14.1c8.91-3.08,17.68-6.63,26.27-10.63c8.58-4,16.97-8.47,25.05-13.49c8.09-5,15.88-10.51,23.3-16.51
	c7.4-6.02,14.4-12.54,20.95-19.49c13.1-13.9,24.29-29.57,33.44-46.26c9.16-16.7,16.32-34.39,21.91-52.46
	c2.82-9.03,5.16-18.19,7.21-27.4c1.07-4.6,1.93-9.23,2.84-13.85c0.8-4.64,1.65-9.27,2.31-13.93c0.75-4.65,1.29-9.31,1.91-13.97
	l0.77-7l0.38-3.5l0.31-3.51c0.91-9.35,1.41-18.71,1.86-28.07l0.05-1.12L1662.4,167.08z M505.19,585.98
	c1.38-0.64,2.82-1.14,4.31-1.51c0.74-0.19,1.5-0.32,2.27-0.45l2.86-0.38c3.86-0.48,7.73-0.87,11.59-1.13
	c7.72-0.53,15.45-0.59,23.04,0.01c7.58,0.61,15.05,1.88,22.05,4.15c6.99,2.26,13.5,5.54,18.89,10.03c2.69,2.24,5.11,4.77,7.18,7.57
	c1.04,1.4,1.99,2.87,2.86,4.39c0.44,0.76,0.85,1.54,1.25,2.32l0.58,1.19c0.17,0.38,0.34,0.75,0.51,1.15
	c1.33,3.19,2.4,6.81,3.17,10.37c0.76,3.56,1.26,7.22,1.17,10.42c-0.03,1.58-0.28,3.05-0.57,3.85c-0.04,0.08-0.07,0.17-0.1,0.25
	c-0.03,0.05-0.06,0.11-0.08,0.17c-0.02,0.02-0.04,0.04-0.04,0.08l-0.27,0.34c-0.37,0.46-0.84,0.94-1.39,1.42
	c-2.19,1.93-5.32,3.64-8.62,5c-6.67,2.72-14.16,4.33-21.66,5.09c-7.52,0.74-15.17,0.62-22.61-0.47c-7.43-1.09-14.68-3.16-21.17-6.48
	c-6.49-3.31-12.15-7.91-16.26-13.7c-1.04-1.43-1.97-2.95-2.8-4.52l-0.62-1.18l-0.56-1.21l-0.27-0.59c-0.05-0.13-0.11-0.25-0.17-0.43
	c-0.12-0.31-0.24-0.71-0.36-1.11c-0.48-1.64-0.91-3.56-1.34-5.5c-0.43-1.94-0.87-3.95-1.37-5.99c-0.51-2.05-1.06-4.13-1.88-6.36
	c-0.43-1.12-0.9-2.27-1.64-3.55c-0.38-0.64-0.82-1.31-1.45-2.04c-0.29-0.33-0.39-0.42-0.6-0.65l-0.55-0.58
	c-1.12-1.19-2.29-2.33-3.48-3.46c0.3-0.38,0.6-0.78,0.93-1.14C499.99,589.12,502.45,587.27,505.19,585.98z M1222.48,87.13
	c26.64-20.76,56.51-37.42,88.41-48.39c7.97-2.75,16.06-5.13,24.24-7.12c8.18-2.01,16.44-3.61,24.75-4.78
	c8.31-1.16,16.66-1.89,24.96-2.03c4.15-0.07,8.28,0.01,12.33,0.29c0.95,0.07,1.9,0.14,2.84,0.24
	c-5.95,14.85-13.01,29.18-21.58,42.52c-10.22,15.97-22.6,30.48-36.93,42.89c-14.32,12.43-30.48,22.75-47.61,31.31
	c-17.06,8.51-35.06,15.27-53.43,20.96c-8.23,1.54-16.48,2.93-24.69,3.94c-8.32,0.99-16.68,1.67-24.62,1.16
	c-3.96-0.25-7.77-0.87-11.22-1.98c-3.44-1.14-6.44-2.8-9.09-5.18c-3.56-3.17-6.6-7.6-9.68-12.38
	C1179.19,125.78,1199.63,104.94,1222.48,87.13z M483.55,176.27c-5.16,4.9-10.98,9.04-17.31,12.1c-6.33,3.08-13.16,5.04-20.18,5.89
	c-14.08,1.74-28.63-0.81-42.39-5.47c-13.81-4.69-26.99-11.46-39.55-19.21c-12.57-7.77-24.54-16.59-36-26.04
	c-11.46-9.45-22.43-19.53-32.93-30.08c-10.48-10.56-20.53-21.57-29.91-33.07c-4.68-5.75-9.21-11.62-13.41-17.65
	c-2.09-3.01-4.11-6.07-5.92-9.15c-0.52-0.89-1.02-1.79-1.5-2.68c28.38,0.83,56.7,3.34,84.36,8.98c7.51,1.54,14.97,3.3,22.34,5.33
	c7.37,2.05,14.66,4.36,21.83,6.96c14.35,5.2,28.24,11.58,41.57,19.06c6.68,3.73,13.23,7.7,19.73,11.83l2.43,1.56
	c0.82,0.52,1.62,1.04,2.37,1.56l2.3,1.55c0.75,0.53,1.49,1.09,2.24,1.63c1.51,1.07,2.92,2.26,4.37,3.4c1.4,1.2,2.82,2.38,4.17,3.64
	c5.42,5.01,10.37,10.53,14.62,16.56c2.17,2.98,4.09,6.13,5.93,9.32c0.86,1.63,1.79,3.22,2.57,4.89l1.21,2.48l1.11,2.53
	c0.77,1.67,1.37,3.42,2.07,5.12l1.99,5.46c1.31,3.64,2.68,7.26,3.95,10.92l0.14,0.39C485.03,174.83,484.3,175.56,483.55,176.27z
	 M516,417.87c-1.58,3.2-3.27,6.34-5.26,9.26c-1.95,2.94-4.08,5.75-6.46,8.33c-4.69,5.22-10.21,9.64-16.28,13.29
	c-6.09,3.65-12.74,6.49-19.69,8.76c-6.97,2.25-14.23,3.92-21.67,5.32c-3.72,0.7-7.49,1.33-11.3,1.94l-5.76,0.93
	c-1.79,0.25-3.45,0.51-5.26,0.65c-1.76,0.2-3.61,0.26-5.42,0.39c-1.85,0.04-3.67,0.15-5.54,0.13c-3.71,0.05-7.48-0.06-11.25-0.2
	c-15.12-0.64-30.42-2.34-45.68-4.34c-15.28-2.02-30.55-4.43-45.84-6.98l-45.87-7.78c-15.02-2.75-29.89-6.21-44.5-10.42
	c-7.29-2.16-14.55-4.42-21.68-6.99c-7.16-2.51-14.21-5.29-21.17-8.26c-27.83-11.87-53.97-27.51-76.67-47.07
	c-22.66-19.55-41.83-43.06-55.55-69.42c-6.86-13.16-12.42-26.99-16.39-41.21c-3.95-14.22-6.38-28.85-6.77-43.37
	c-0.12-3.63-0.06-7.25,0.1-10.84c0.08-1.8,0.21-3.58,0.36-5.36c0.07-0.89,0.18-1.77,0.27-2.66l0.14-1.29
	c0.05-0.27,0.07-0.53,0.13-0.81c0.4-2.18,1.39-4.52,2.74-6.48c1.33-1.97,3.06-3.55,4.54-4.31c0.74-0.41,1.38-0.58,1.91-0.67
	c0.53-0.08,0.96-0.03,1.46,0.07l4.85,1.52c1.9,0.61,3.82,1.18,5.74,1.74c7.67,2.27,15.41,4.32,23.22,6.13
	c15.62,3.61,31.48,6.19,47.38,7.85c15.9,1.67,31.83,2.4,47.67,2.54c31.33,0.24,62.27-1.64,93.02-3.66
	c15.82,1.63,31.56,3.7,46.99,6.66c15.72,3.01,31.16,6.88,45.8,12.24c14.61,5.39,28.36,12.3,40.41,21.38
	c12.11,9.02,22.47,20.24,32.02,32.82c9.56,12.58,18.5,26.38,28.12,40.08c9.59,13.72,19.83,27.35,31.02,40.2
	c2.77,3.21,5.71,6.46,8.35,9.32c2.63,3,5.1,6.12,7.66,9.18l1.9,2.31l1.92,2.38l3.85,4.76c2.58,3.16,5.09,6.37,7.62,9.57
	c3.07,3.89,6.1,7.81,9.11,11.73C519.07,410.89,517.65,414.45,516,417.87z M600.05,990.51c0.56-21.59,2.03-43.16,4.61-64.54
	c1.25-10.7,2.85-21.33,4.71-31.9c1.84-10.57,4.05-21.05,6.6-31.41c1.23-5.2,2.68-10.31,4.09-15.44l2.29-7.63
	c0.76-2.54,1.64-5.03,2.45-7.55c3.37-10.02,7.16-19.85,11.49-29.36l0.43-0.95l0.26-0.89c4.66-15.65,9.68-31.6,13.89-48.03
	c4.24-16.41,7.62-33.32,9.5-50.51c1.86-17.19,2.2-34.63,0.88-51.9c-1.3-17.28-4.22-34.37-8.41-51.04
	c-8.41-33.36-21.76-64.92-37.52-94.76c-15.78-29.87-34.06-58.1-53.6-85.24c-7.32-10.15-14.83-20.14-22.5-30
	c0.62-4.31,1.07-8.62,1.36-12.92c1.13-16.12,0.22-32.09-1.54-47.85c-3.72-31.5-11.14-62.14-19.95-92.2
	c-4.42-15.03-9.24-29.92-14.34-44.7l-3.88-11.06l-2.77-7.63c2.23-2.8,4.32-5.7,6.27-8.67c4.17-6.4,7.7-13.13,10.81-20.02
	c19.28-27.74,43.74-51.8,71.52-71.1c27.87-19.42,58.94-34.14,91.34-44.51c32.43-10.37,66.21-16.5,100.21-18.82
	c34.02-2.31,68.29-0.9,102.06,3.91c33.78,4.79,67.07,13,99.19,24.44c32.13,11.42,63.1,26.07,92.18,43.8
	c14.53,8.9,28.56,18.52,42.06,28.94c6.67,5.08,12.86,10.59,18.45,16.67c3.85,4.15,7.34,8.57,10.6,13.22
	c-2.02,2.56-4.02,5.13-5.98,7.72c-21.35,28.37-39.18,59.18-54.11,91.18l-0.22,0.48l-0.19,0.56c-2.81,8.44-4.61,16.88-5.85,25.26
	c-1.27,8.38-1.97,16.71-2.42,25c-0.84,16.58-0.52,33,0.32,49.32c0.68,12.58,1.68,25.09,2.92,37.56c-2.91,3.34-5.8,6.69-8.65,10.08
	c-18.31,21.72-35.48,44.46-51.25,68.18c-15.76,23.72-30.11,48.42-42.82,73.96c-6.35,12.77-12.29,25.74-17.83,38.89l-4.07,9.9
	c-1.3,3.32-2.64,6.63-3.9,9.96c-1.25,3.34-2.55,6.66-3.74,10.02c-1.21,3.36-2.43,6.67-3.62,10.18l-1.79,5.2
	c-0.31,0.82-0.56,1.88-0.84,2.82l-0.41,1.46l-0.36,1.35c-0.96,3.6-1.81,7.23-2.56,10.86c-1.52,7.27-2.67,14.59-3.49,21.94
	c-1.63,14.7-1.91,29.53-0.84,44.3c1.09,14.77,3.58,29.51,7.64,43.91c4.09,14.38,9.75,28.45,17.23,41.63
	c3.72,6.59,7.92,12.95,12.5,19.02c4.62,6.04,9.62,11.83,15.04,17.19c10.57,10.53,22.64,19.52,35.53,26.84
	c10.84,7.83,20.93,16.37,29.69,25.86c8.89,9.6,16.31,20.22,21.82,31.7c5.5,11.48,9.05,23.82,10.63,36.59
	c1.6,12.77,1.35,25.92-0.36,39.07c-3.46,26.34-12.26,52.45-23.45,77.58c-11.14,24.94-24.74,49.03-39.52,72.45
	c-3.52,4.45-7.11,8.8-10.83,12.96c-3.88,4.29-7.87,8.41-12.02,12.23c-3.26,3.02-6.63,5.85-10.07,8.43c1.3-5.89,2.01-11.91,2.1-17.95
	c0.11-7.95-0.84-15.97-2.96-23.76c-2.12-7.79-5.41-15.38-9.99-22.31c-4.55-6.93-10.39-13.17-17.2-18.16
	c-6.8-5.01-14.54-8.68-22.5-10.92l-0.6-0.17l-0.54-0.11c-7.3-1.44-14.92-2-22.68-1.3c-7.74,0.7-15.64,2.69-23.08,6.43
	c-3.72,1.86-7.29,4.19-10.58,6.93c-3.28,2.76-6.29,5.94-8.81,9.48c-5.11,7.05-8.2,15.37-9.4,23.46c-1.23,8.13-0.73,16.03,0.64,23.38
	c0.69,3.7,1.61,7.22,2.72,10.71c1.15,3.6,2.55,7.12,4.19,10.52c6.55,13.65,17,25.25,29.48,33.33c5.58,3.63,11.55,6.59,17.74,8.86
	c-15.63,6.67-30.92,12.92-46.16,16.83c-2.45,0.67-4.9,1.17-7.35,1.73c-2.46,0.46-4.91,0.97-7.37,1.31
	c-2.46,0.43-4.93,0.66-7.39,0.97c-2.48,0.19-4.95,0.45-7.43,0.52c-9.93,0.51-20-0.16-30.11-1.57c-10.11-1.4-20.27-3.71-30.4-6.49
	c-10.12-2.8-20.22-6.11-30.25-9.79l-6.44-2.42c3.59-1.61,7.08-3.5,10.38-5.71c5.8-3.86,11.01-8.59,15.38-13.8
	c4.38-5.2,7.97-10.83,10.92-16.58c0.74-1.44,1.43-2.88,2.1-4.33l0.97-2.18l0.96-2.31c0.6-1.53,1.11-3.02,1.66-4.54
	c0.48-1.49,0.98-2.95,1.43-4.46c1.78-6.02,3.24-12.28,3.9-18.91c0.36-3.3,0.5-6.7,0.42-10.16c-0.07-3.45-0.4-6.98-1.06-10.54
	c-1.29-7.09-3.93-14.32-8.11-20.74c-4.15-6.44-9.78-11.92-16.04-15.96c-6.27-4.07-13.11-6.77-20.02-8.34
	c-6.92-1.56-13.93-2.02-20.86-1.5c-6.93,0.53-13.81,2.04-20.45,4.66c-6.62,2.63-13.06,6.4-18.67,11.65
	c-0.7,0.66-1.41,1.34-1.97,1.93c-0.6,0.61-1.18,1.22-1.76,1.86c-1.16,1.25-2.26,2.56-3.34,3.9c-2.15,2.68-4.11,5.52-5.87,8.49
	c-3.54,5.93-6.21,12.39-7.97,19.02c-3.53,13.31-3.28,27.1-0.44,39.84c1.63,7.32,4.08,14.33,7.18,20.97
	c-0.84-0.23-1.69-0.45-2.53-0.69c-2.49-0.69-4.97-1.45-7.45-2.23l-3.72-1.21c-0.67-0.21-1.12-0.39-1.62-0.57
	c-0.49-0.19-1-0.35-1.49-0.55c-3.93-1.6-7.78-3.64-11.41-6.24c-7.3-5.12-13.8-12.08-19.21-19.93c-5.37-7.85-9.75-16.69-12.46-25.56
	c-0.68-2.21-1.22-4.42-1.65-6.56c-0.21-0.96-0.43-2.42-0.64-3.7l-0.65-3.92l-1.17-7.9l-1.03-7.95c-1.29-10.63-2.25-21.34-2.96-32.09
	c-0.7-10.75-1.15-21.53-1.37-32.33C599.74,1012.11,599.79,1001.31,600.05,990.51z M939.93,1177.24c-2.46-0.24-4.96-0.68-7.5-1.24
	c-0.63-0.13-1.27-0.29-1.91-0.45c-0.64-0.16-1.28-0.31-1.86-0.48c-1.2-0.33-2.39-0.69-3.56-1.1c-4.7-1.61-9.18-3.79-13.28-6.48
	c-8.22-5.37-14.85-12.85-18.97-21.49c-1.03-2.16-1.92-4.39-2.64-6.68c-0.76-2.39-1.39-4.85-1.82-7.23
	c-0.89-4.77-1.08-9.37-0.43-13.46c0.64-4.1,2.04-7.65,4.2-10.61c2.14-2.96,5.05-5.4,8.67-7.21c3.6-1.81,7.87-2.95,12.42-3.35
	c4.36-0.39,8.97-0.09,13.57,0.78c9.29,2.75,17.01,8.55,22.31,16.66c5.42,8.23,8.15,18.7,7.96,29.21
	c-0.17,10.53-3.23,21.07-8.75,30.05c-0.7,1.15-1.44,2.27-2.22,3.37C944.07,1177.56,942.01,1177.47,939.93,1177.24z M723.37,1176.92
	c-4.72,1.51-9.89,2.32-15.3,2.59c-2-2.43-3.88-4.95-5.6-7.56c-5.17-7.82-8.96-16.4-10.92-25.14c-1.96-8.73-2.01-17.58,0.11-25.6
	c1.07-4.01,2.64-7.83,4.74-11.35c1.05-1.76,2.21-3.47,3.51-5.09c0.65-0.81,1.32-1.61,2.03-2.37c0.67-0.75,1.52-1.61,2.06-2.11
	c4.86-4.64,12.78-7.75,20.86-8.34c4.04-0.31,8.14-0.04,11.97,0.82c3.83,0.86,7.36,2.31,10.34,4.24c5.97,3.88,9.63,9.48,11.03,16.97
	c1.4,7.48,0.29,16.55-2.44,25.6c-0.33,1.14-0.73,2.27-1.08,3.41c-0.39,1.07-0.76,2.19-1.16,3.22l-0.62,1.5l-0.7,1.6
	c-0.48,1.05-0.98,2.09-1.49,3.1c-2.07,4.05-4.45,7.76-7.15,11C738.12,1169.88,731.43,1174.38,723.37,1176.92z M973.49,1226.97
	c-11.99,9.4-24.93,17.53-38.64,24.14c-13.7,6.63-28.15,11.75-43.01,15.4c-7.43,1.83-14.97,3.3-22.57,4.44l-5.72,0.78l-6.07,0.69
	c-0.99,0.09-2.08,0.29-3.15,0.47l-3.2,0.54l-5.98,1.03c-15.83,2.71-31.47,5.39-47,7.11c-15.51,1.7-30.94,2.52-46.02,1.34
	c-7.53-0.58-14.98-1.59-22.27-3.2c-7.28-1.62-14.4-3.79-21.29-6.54c-6.89-2.75-13.55-6.07-19.93-9.92
	c-6.37-3.87-12.46-8.26-18.26-13.07c-11.6-9.64-21.94-21.02-31.33-33.24c-4.66-6.16-9.07-12.53-13.31-19.05
	c-3.9-6.18-7.7-12.45-11.27-18.88c3.01,2.78,6.2,5.41,9.61,7.83c5.32,3.82,11.23,7.05,17.49,9.6c0.78,0.32,1.59,0.6,2.38,0.89
	c0.79,0.29,1.64,0.6,2.27,0.81c1.37,0.46,2.74,0.91,4.13,1.35c2.77,0.88,5.54,1.74,8.36,2.53c11.24,3.19,22.92,5.72,35.21,6.76
	c0.02,0,0.05,0,0.07,0.01c0.55,0.52,1.11,1.04,1.67,1.55c2.46,2.22,5.02,4.29,7.67,6.21c5.3,3.84,10.94,7.09,16.77,9.79
	c1.46,0.68,2.93,1.31,4.41,1.92l2.19,0.87l1.98,0.75l7.95,2.99c10.65,3.9,21.5,7.46,32.6,10.52c11.11,3.05,22.47,5.64,34.18,7.26
	c11.69,1.63,23.69,2.44,35.77,1.82c3.02-0.09,6.03-0.4,9.04-0.65c3-0.36,6.01-0.67,8.98-1.17c2.99-0.43,5.93-1.03,8.89-1.59
	c2.92-0.66,5.86-1.28,8.73-2.06c5.77-1.48,11.42-3.2,16.92-5.1c5.52-1.88,10.9-3.91,16.18-6.02c10.58-4.2,20.73-8.66,30.82-12.97
	l0.75-0.32l0.68-0.39c6.78-3.83,13.2-8.47,18.94-13.92c1.12-1.07,2.2-2.17,3.27-3.3c6.34-1.34,12.42-3.45,18.14-6.02
	c13.22-6.07,24.36-14.53,34.16-23.64c4.91-4.57,9.49-9.35,13.87-14.23c3.13-3.53,6.13-7.13,9.05-10.77
	c-1.39,2.45-2.81,4.9-4.27,7.31C1017.38,1184.15,997.49,1208.14,973.49,1226.97z M1102.8,544.58l0.52,2.96l0.45,2.74
	c0.27,1.82,0.52,3.64,0.72,5.46c0.8,7.3,0.96,14.65,0.44,21.93c-0.56,7.96-1.96,15.82-4.18,23.4c-1.48-2.61-3.12-5.19-5-7.68
	c-2.99-3.98-6.55-7.72-10.57-10.91c-4.01-3.2-8.45-5.85-13.01-7.88c-4.56-2.06-9.24-3.47-13.86-4.52c-2.31-0.5-4.61-0.92-6.9-1.23
	c-1.14-0.16-2.28-0.31-3.43-0.42c-1.13-0.13-2.31-0.23-3.5-0.31c-9.31-0.6-18.7,0.22-27.8,2.51c-9.09,2.3-17.9,6.02-25.95,11.5
	c-4.02,2.75-7.84,5.95-11.3,9.73c-3.45,3.78-6.56,8.18-8.86,13.31c-1.14,2.56-2.07,5.31-2.69,8.2c-0.31,1.44-0.53,2.94-0.67,4.41
	c-0.12,1.4-0.19,2.81-0.18,4.24c0.02,5.71,1.31,11.65,3.81,16.89c2.47,5.27,6.02,9.76,9.91,13.4c3.91,3.65,8.18,6.48,12.52,8.79
	c8.71,4.56,17.7,7.07,26.56,8.6c4.44,0.76,8.86,1.24,13.25,1.52c2.2,0.14,4.39,0.23,6.57,0.27c1.07,0.03,2.23,0.03,3.23,0.03
	l1.32-0.01c0.45,0,0.95,0.03,1.42,0.05l0.72,0.03l0.86,0.01l1.73,0.02c1.16-0.01,2.32-0.02,3.48-0.08c2.33-0.09,4.66-0.27,7.01-0.56
	c4.68-0.57,9.39-1.56,14.01-3.04c6.2-1.96,12.22-4.92,17.68-8.7c1.65,11.71,2.86,23.75,4.12,35.84l2.52,24.05
	c0.45,4.08,0.88,7.91,1.26,11.85c0.38,3.93,0.74,7.86,1.06,11.81c1.29,15.79,2.18,31.66,2.75,47.54c1.12,31.77,0.95,63.6-0.68,95.32
	c-0.32,6.27-0.72,12.53-1.16,18.79c-1.65-4.49-3.52-8.9-5.61-13.2c-6.89-14.17-16.09-27.08-26.61-38.3
	c-10.52-11.27-22.25-20.98-34.41-29.63l-0.65-0.46l-0.65-0.36c-11.23-6.22-21.59-13.82-30.67-22.76
	c-4.56-4.45-8.76-9.27-12.67-14.31c-3.87-5.08-7.44-10.41-10.63-15.98c-6.42-11.13-11.38-23.18-15.03-35.69
	c-3.62-12.53-5.92-25.52-6.98-38.65c-1.05-13.14-0.88-26.42,0.48-39.55c0.68-6.57,1.66-13.1,2.97-19.54
	c0.64-3.22,1.37-6.42,2.19-9.59l0.3-1.19l0.29-1.07c0.21-0.73,0.34-1.38,0.64-2.21l1.6-4.73c1.03-3.12,2.21-6.39,3.35-9.62
	c1.12-3.24,2.36-6.45,3.54-9.67c1.19-3.22,2.46-6.41,3.69-9.61l3.85-9.55c5.24-12.69,10.88-25.21,16.91-37.56
	c12.04-24.69,25.67-48.61,40.72-71.64c13.4-20.51,27.91-40.32,43.36-59.4c1.16,9.06,2.41,18.1,3.72,27.12
	c4.68,32.02,10.28,63.84,16,95.47L1102.8,544.58z M1085.78,631.49c-1.16,1.39-2.38,2.71-3.68,3.93c-4.53,4.25-9.96,7.35-16.04,9.26
	c-3.04,0.96-6.23,1.63-9.53,2.01c-1.64,0.2-3.32,0.32-5.01,0.37c-0.84,0.04-1.69,0.04-2.54,0.04l-1.28-0.02l-0.65-0.01l-0.79-0.03
	c-0.53-0.02-1.03-0.05-1.59-0.06l-1.69,0c-1.01-0.01-1.87-0.01-2.8-0.04c-1.83-0.04-3.66-0.12-5.47-0.25
	c-3.62-0.25-7.2-0.66-10.68-1.28c-6.95-1.22-13.61-3.24-19.14-6.19c-2.75-1.48-5.2-3.17-7.16-5.03c-1.96-1.86-3.43-3.83-4.36-5.86
	c-0.93-2.03-1.4-4.12-1.41-6.45c0-0.58,0.03-1.18,0.08-1.78c0.06-0.53,0.13-1.02,0.24-1.54c0.23-1.04,0.58-2.12,1.08-3.22
	c1.97-4.45,6.23-9.03,11.47-12.56c5.25-3.57,11.46-6.23,17.95-7.85c6.5-1.62,13.31-2.2,20.04-1.75c3.29,0.26,6.83,0.73,10.02,1.45
	c3.21,0.74,6.27,1.68,9.03,2.95c5.56,2.49,10.02,6.08,13.68,10.97c3.67,4.88,6.5,11.06,8.7,17.85
	C1084.81,628.07,1085.31,629.77,1085.78,631.49z"/>
</svg>
