<?xml version="1.0" encoding="utf-8"?>
<!-- Generator: Adobe Illustrator 25.0.1, SVG Export Plug-In . SVG Version: 6.00 Build 0)  -->
<svg version="1.1" id="Layer_1" xmlns="http://www.w3.org/2000/svg" xmlns:xlink="http://www.w3.org/1999/xlink" x="0px" y="0px"
	 viewBox="0 0 1500 348.14" style="enable-background:new 0 0 1500 348.14;" xml:space="preserve">
<g>
	<path d="M121.53,21.11c9.02-0.54,17.64-1.94,25.85-4.2c8.21-2.25,15.02-5.91,20.44-10.96c-2.89,0-7.71-0.18-14.48-0.54
		c-6.77-0.36-15.83-1.08-27.2-2.16c-5.41-0.54-10.96-1.08-16.65-1.62c-5.68-0.54-11.64-0.95-17.86-1.22C85.4,0.13,78.76,0,71.73,0
		c-13.53,0-25.54,0.81-36,2.44C25.26,4.06,16.92,6.9,10.69,10.96C4.47,15.02,0.9,20.84,0,28.42c7.94-1.44,15.61-2.57,23.01-3.38
		c7.4-0.81,15.56-1.49,24.5-2.03c8.93-0.54,19.53-0.9,31.8-1.08c-3.79,8.84-7.9,18.5-12.32,28.96c-4.42,10.47-9.02,21.48-13.8,33.02
		c-4.78,11.55-9.52,23.55-14.21,36c-4.69,12.45-9.2,25.08-13.53,37.89c-2.16,6.68-4.29,13.67-6.36,20.98
		c-2.08,7.31-3.11,13.58-3.11,18.81c0.18,6.13,2.17,11.14,5.96,15.02c3.79,3.88,10.64,5.82,20.57,5.82
		c-0.36-1.99-0.59-3.56-0.68-4.74c-0.09-1.18-0.13-2.21-0.13-3.11c0-5.59,0.36-10.87,1.08-15.83c0.72-4.96,1.85-10.46,3.38-16.51
		c1.53-6.04,3.47-13.4,5.82-22.06C58.1,133.8,64.78,111.15,72,88.24c7.21-22.91,15.16-45.02,23.82-66.31
		C103.94,21.92,112.5,21.65,121.53,21.11z"/>
	<path d="M351.46,78.36c2.8,1.72,5.91,2.57,9.34,2.57c4.87,0,9.38-1.76,13.53-5.28c4.15-3.52,6.23-7.17,6.23-10.96
		c0-3.79-1.13-6.4-3.38-7.85c-2.26-1.44-5.01-2.17-8.26-2.17c-5.05,0-9.93,1.54-14.62,4.6c-4.69,3.07-7.04,6.77-7.04,11.1
		C347.26,73.98,348.66,76.64,351.46,78.36z"/>
	<path d="M580.57,169.3c-5.41,4.78-10.92,7.9-16.51,9.34c0.36-1.62,0.63-3.34,0.81-5.14c0.18-1.8,0.27-3.79,0.27-5.95
		c0-8.12-1.31-16.06-3.93-23.82c-2.62-7.76-5.24-15.11-7.85-22.06c-2.62-6.94-3.93-13.13-3.93-18.54c0-2.53,0.22-4.51,0.68-5.96
		c0.45-1.44,0.68-2.71,0.68-3.79c-0.18-1.44-0.77-2.71-1.76-3.79c-0.99-1.08-2.57-1.62-4.74-1.62c-3.25,0-6.09,1.49-8.53,4.47
		c-2.44,2.98-3.65,8.08-3.65,15.29v2.71c-3.43,7.58-7.54,14.48-12.32,20.71c-4.78,6.23-9.43,11.68-13.94,16.38
		c-0.89,0.89-2.26,1.69-4.1,2.39l-1.85-1.85c-0.66,1.25-1.32,2.45-1.98,3.64c-0.77,0.42-1.55,0.86-2.36,1.37
		c-2.16,1.35-3.97,3.48-5.41,6.36c-1.01,2.02-1.65,4.62-1.96,7.77c-4.12,5.68-8.2,10.17-12.25,13.47
		c-7.85,6.41-13.94,9.61-18.27,9.61c-2.89,0-4.97-1.04-6.23-3.11c-1.26-2.07-1.9-4.28-1.9-6.63c0-3.07,0.77-6.27,2.3-9.61
		c1.53-3.34,3.34-6.67,5.41-10.02c2.07-3.34,3.88-6.4,5.41-9.2c1.53-2.8,2.3-5.1,2.3-6.9c0-1.98-0.9-3.61-2.71-4.87
		c-1.81-1.26-3.75-2.21-5.82-2.84c-2.08-0.63-3.48-1.04-4.2-1.22c-0.91,0-1.62,0.45-2.17,1.35c-3.43,4.51-7.49,9.97-12.18,16.38
		c-4.69,6.41-9.61,12.68-14.75,18.81c-5.14,6.14-10.24,11.23-15.29,15.29c-5.05,4.06-9.66,6.09-13.8,6.09
		c-4.15,0-6.23-2.88-6.23-8.66c0-5.05,1.08-10.73,3.25-17.05c2.17-6.31,5.14-12.76,8.93-19.35c3.79-6.59,8.07-12.63,12.86-18.14
		c4.78-5.5,9.79-9.97,15.02-13.4c5.23-3.43,10.37-5.14,15.43-5.14c4.69,0,7.76,1.45,9.2,4.33c1.44,2.89,2.17,6.14,2.17,9.74
		c0,1.81-0.14,3.52-0.41,5.14c-0.27,1.62-0.59,3.25-0.95,4.87c4.69,0.9,8.75,0.27,12.18-1.9c3.43-2.17,5.14-5.68,5.14-10.56
		c0-6.5-2.71-11.73-8.12-15.7c-5.41-3.97-12-5.95-19.76-5.95c-7.4,0-14.8,1.81-22.19,5.41c-7.4,3.61-14.35,8.35-20.84,14.21
		c-6.5,5.87-12.27,12.41-17.32,19.62c-5.05,7.22-9.02,14.53-11.91,21.92c-0.6,1.54-1.12,3.04-1.59,4.53
		c-3.78,5.43-7.49,9.7-11.12,12.79c-7.22,6.14-13.9,9.2-20.03,9.2c-3.97,0-7-0.95-9.07-2.84c-2.08-1.9-3.11-5.73-3.11-11.5
		c0-5.96,1.4-12.22,4.2-18.81c2.8-6.59,6.04-12.95,9.74-19.08c3.7-6.13,6.94-11.55,9.74-16.24c2.8-4.69,4.2-8.21,4.2-10.56
		c0-2.53-0.81-4.47-2.44-5.82c-1.62-1.35-3.52-2.03-5.68-2.03c-3.97,0-7.94,1.94-11.91,5.82c-3.97,3.88-7.67,8.89-11.1,15.02
		c-3.43,6.14-6.45,12.68-9.07,19.62c-1.78,4.73-3.27,9.3-4.51,13.74c-0.59,0.95-1.2,1.92-1.85,2.91
		c-3.07,4.69-6.86,8.75-11.37,12.18c-4.51,3.43-9.93,5.14-16.24,5.14c-1.08,0-1.94-0.04-2.57-0.14c-0.63-0.09-1.4-0.14-2.3-0.14
		c2.71-5.77,4.74-11.59,6.09-17.46c1.35-5.86,2.03-11.41,2.03-16.65c0-9.2-1.9-16.01-5.68-20.44c-3.79-4.42-8.57-6.63-14.35-6.63
		c-6.86,0-12.68,2.71-17.46,8.12c-4.78,5.41-7.17,12.54-7.17,21.38c0,7.22,1.71,14.07,5.14,20.57c3.43,6.5,8.48,11.55,15.16,15.16
		c-3.43,6.14-7.85,11.37-13.26,15.7c-5.41,4.33-10.47,6.5-15.16,6.5c-5.24,0-8.89-2.57-10.96-7.71c-2.08-5.14-3.11-11.32-3.11-18.54
		c0-7.4,0.77-14.79,2.3-22.2c1.53-7.4,3.25-13.98,5.14-19.76c1.9-5.77,3.47-9.83,4.74-12.18c6.67-3.79,13.13-8.93,19.35-15.43
		c6.23-6.5,11.95-13.71,17.19-21.65c5.23-7.94,9.83-15.97,13.8-24.09c3.97-8.12,7.04-15.79,9.2-23.01
		c2.17-7.22,3.25-13.35,3.25-18.41c-0.18-4.15-1.18-8.3-2.98-12.45c-1.81-4.15-4.51-6.23-8.12-6.23c-4.15,0-9.11,3.07-14.89,9.2
		c-5.78,6.14-11.91,14.39-18.41,24.77c-6.5,10.38-12.86,21.92-19.08,34.65c-6.23,12.72-11.87,25.71-16.92,38.98
		c-5.05,13.26-9.11,25.94-12.18,38.03c-1.11,4.38-2.01,8.53-2.72,12.48c-0.43,0.41-0.88,0.81-1.34,1.18
		c-3.61,2.98-7.31,5.1-11.1,6.36c-3.79,1.26-7.04,1.9-9.74,1.9c-2.89,0-5.41-0.54-7.58-1.62c4.87-7.4,9.07-15.25,12.59-23.55
		c3.52-8.3,5.28-15.79,5.28-22.47c0-5.96-1.58-11.1-4.74-15.43c-3.16-4.33-8.62-6.5-16.38-6.5c-7.22,0-12.95,1.81-17.19,5.41
		c-4.24,3.61-7.31,7.85-9.2,12.72c-1.9,4.87-2.84,9.2-2.84,12.99c0,8.84,1.26,16.38,3.79,22.6c2.52,6.23,6.67,11.96,12.45,17.19
		c-4.33,5.05-8.89,9.52-13.67,13.4c-4.78,3.88-8.89,5.82-12.32,5.82c-3.43,0-5.82-1.17-7.17-3.52c-1.35-2.34-2.03-5.32-2.03-8.93
		c0-3.79,0.54-7.94,1.62-12.45c1.08-4.51,2.57-8.97,4.47-13.4c1.89-4.42,3.97-8.61,6.23-12.59c2.25-3.97,4.47-7.31,6.63-10.02
		c-0.72-0.9-1.94-1.58-3.65-2.03c-1.72-0.45-3.21-0.68-4.47-0.68c-3.97,0-7.9,1.58-11.77,4.74c-3.88,3.16-7.4,7.35-10.56,12.59
		c-3.16,5.24-5.64,10.87-7.44,16.92c-1.8,6.05-2.71,11.96-2.71,17.73c0,6.32,1.49,12.14,4.47,17.46c2.98,5.32,8.53,7.98,16.65,7.98
		c8.12,0,16.15-2.71,24.09-8.12c7.94-5.41,14.98-11.73,21.11-18.95c1.98,0.72,4.15,1.31,6.5,1.76c2.34,0.45,4.69,0.68,7.04,0.68
		c6.31,0,12.76-2.12,19.35-6.36c0.72-0.46,1.42-0.96,2.11-1.48c-0.23,2.64-0.35,5.17-0.35,7.57c0,11.19,2.66,19.98,7.99,26.39
		c5.32,6.4,13.13,9.61,23.41,9.61c10.1,0,18.9-2.84,26.39-8.53c7.49-5.68,13.76-12.59,18.81-20.71c0.9,0.18,1.85,0.27,2.84,0.27
		c0.99,0,1.94,0,2.84,0c10.64,0,19.26-2.8,25.85-8.39c1.27-1.08,2.5-2.25,3.69-3.51c-0.2,1.87-0.31,3.58-0.31,5.14
		c0,6.68,1.99,12.36,5.95,17.05c3.97,4.69,9.92,7.04,17.86,7.04c11.19,0,21.65-4.42,31.4-13.26c2.06-1.87,4.05-3.91,5.95-6.1
		c0,0.05,0,0.1,0,0.14c0,7.94,2.21,13.89,6.63,17.86c4.42,3.97,9.61,5.95,15.56,5.95c6.86,0,13.31-2.53,19.35-7.58
		c6.04-5.05,12.68-11.91,19.89-20.57c0,0.18,0,0.36,0,0.54c0,0.18,0,0.45,0,0.81c0.36,5.41,2.34,10.47,5.95,15.16
		c3.61,4.69,9.11,7.04,16.51,7.04c6.86,0,13.62-2.12,20.3-6.36c6.42-4.07,12.54-9.67,18.37-16.75c0.58,3.09,1.49,6.15,2.73,9.17
		c2.34,5.68,6.27,10.37,11.77,14.07c5.5,3.7,12.76,5.55,21.79,5.55c8.3,0,15.74-1.81,22.33-5.41c6.59-3.61,11.32-9.11,14.21-16.51
		c8.66-1.44,16.24-5.28,22.74-11.5c6.5-6.23,11.46-14.48,14.89-24.77l-3.25-2.44C591.13,157.44,585.98,164.52,580.57,169.3z
		 M244.14,78.09c4.33-9.11,8.8-17.41,13.4-24.9c4.6-7.49,8.75-13.58,12.45-18.27c3.7-4.69,6.36-7.31,7.98-7.85c0,0.18,0,0.41,0,0.68
		c0,0.27,0,0.59,0,0.95c-0.36,2.89-1.45,6.72-3.25,11.5c-1.81,4.78-4.11,10.11-6.9,15.97c-2.8,5.87-6.05,11.82-9.74,17.86
		c-3.7,6.05-7.67,11.82-11.91,17.32c-4.24,5.51-8.62,10.33-13.13,14.48C236.11,96.45,239.81,87.2,244.14,78.09z M156.45,161.86
		c-2.53-3.07-4.47-7.31-5.82-12.72s-2.03-10.02-2.03-13.8c0-7.4,1.8-13.53,5.41-18.41c3.61-4.87,7.13-7.31,10.56-7.31
		c2.52,0,4.42,0.95,5.68,2.84c1.26,1.9,1.9,4.92,1.9,9.07c0,6.14-1.53,12.81-4.6,20.03C164.47,148.78,160.78,155.54,156.45,161.86z
		 M266.47,161.18c-0.81,3.7-2.03,7.35-3.65,10.96c-4.51-3.07-7.58-7.13-9.2-12.18c-1.62-5.05-2.44-9.47-2.44-13.26
		c0-4.51,0.85-8.39,2.57-11.64c1.71-3.25,3.74-4.87,6.09-4.87c2.17,0,4.01,1.54,5.55,4.6c1.53,3.07,2.3,7.85,2.3,14.35
		C267.69,153.47,267.28,157.48,266.47,161.18z M533.2,194.07c-3.07,1.8-6.41,2.71-10.02,2.71c-6.68,0-11.73-2.61-15.16-7.85
		c-3.43-5.23-5.14-10.83-5.14-16.78c0-4.33,1.26-6.77,3.79-7.31c3.25,4.33,7.85,8.57,13.8,12.72c5.96,4.15,12.63,7.04,20.03,8.66
		C538.7,189.65,536.27,192.26,533.2,194.07z M543.35,173.63c-0.09,1.72-0.32,3.21-0.68,4.47c-7.22-1.8-13.63-4.87-19.22-9.2
		c-5.59-4.33-9.84-8.93-12.72-13.8c3.79-3.97,7.85-9.2,12.18-15.7c4.33-6.5,8.12-12.54,11.37-18.13c1.98,8.3,3.97,16.42,5.95,24.36
		c1.98,7.94,3.07,15.97,3.25,24.09C543.49,170.61,543.44,171.92,543.35,173.63z"/>
	<path d="M789.66,184.86c4.24-7.22,6.36-15.52,6.36-24.9c0-9.38-2.08-17.32-6.23-23.82c-4.15-6.5-9.52-12.09-16.1-16.78
		c-6.59-4.69-13.53-8.93-20.84-12.72c-7.31-3.79-14.26-7.58-20.84-11.37c-6.59-3.79-11.96-7.99-16.1-12.59
		c-4.15-4.6-6.23-10.15-6.23-16.65c0-5.23,1.44-11.05,4.33-17.46c2.88-6.4,6.99-12.49,12.32-18.27
		c5.32-5.77,11.59-10.56,18.81-14.35c7.22-3.79,15.16-5.68,23.82-5.68c5.77,0,9.61,0.91,11.5,2.71c1.9,1.81,2.84,4.33,2.84,7.58
		c0,3.61-0.77,7.81-2.3,12.59c-1.54,4.78-3.34,9.7-5.41,14.75c-2.08,5.05-3.88,9.93-5.41,14.62c-1.54,4.69-2.3,8.93-2.3,12.72
		c0,3.79,0.99,6.81,2.98,9.07c1.98,2.26,4.96,3.84,8.93,4.74c3.07-4.87,6.27-10.73,9.61-17.59c3.34-6.86,6.18-14.08,8.53-21.65
		c2.34-7.58,3.52-14.7,3.52-21.38c0-8.48-2.53-15.33-7.58-20.57C788.8,2.62,780.05,0,767.6,0c-11.91,0-22.74,2.3-32.48,6.9
		c-9.74,4.6-18.05,10.6-24.9,18c-6.86,7.4-12.14,15.29-15.83,23.68c-3.7,8.39-5.55,16.29-5.55,23.68c0,8.3,2.12,15.43,6.36,21.38
		c4.24,5.95,9.7,11.19,16.38,15.7c6.67,4.51,13.71,8.71,21.11,12.59c7.4,3.88,14.43,7.94,21.11,12.18
		c6.67,4.24,12.13,9.02,16.38,14.35c4.24,5.32,6.36,11.68,6.36,19.08c0,8.12-2.48,14.89-7.44,20.3
		c-4.97,5.41-11.28,9.47-18.95,12.18c-7.67,2.71-15.56,4.06-23.68,4.06c-9.38,0-17.23-1.67-23.55-5.01
		c-6.32-3.34-11.05-7.67-14.21-12.99c-3.16-5.32-4.74-11.05-4.74-17.19c0-5.96,1.49-12.18,4.47-18.68
		c2.98-6.5,7.35-12.81,13.13-18.95c-6.14,0-12.45,1.08-18.95,3.25c-6.5,2.17-11.91,6-16.24,11.5c-4.33,5.51-6.5,13.13-6.5,22.87
		c0,11.01,2.98,20.21,8.93,27.61c5.96,7.4,13.67,12.9,23.14,16.51c9.47,3.61,19.44,5.41,29.91,5.41c9.02,0,17.91-1.31,26.66-3.92
		c8.75-2.62,16.74-6.41,23.95-11.37C779.68,198.17,785.41,192.08,789.66,184.86z"/>
	<path d="M1498.51,12.32c-0.99-3.34-2.3-6.23-3.92-8.66c-1.63-2.44-3.61-3.65-5.96-3.65c-3.43,0-7.9,3.02-13.4,9.07
		c-5.51,6.05-11.5,14.12-18,24.22c-6.5,10.11-12.95,21.43-19.35,33.97c-6.41,12.54-12.27,25.35-17.59,38.43
		c-5.32,13.09-9.61,25.58-12.86,37.49c-1.13,4.14-2.05,8.08-2.79,11.86c-6.79,11.7-13.48,20.25-20.08,25.63
		c-7.85,6.41-13.94,9.61-18.27,9.61c-2.89,0-4.97-1.04-6.23-3.11c-1.27-2.07-1.9-4.28-1.9-6.63c0-3.07,0.77-6.27,2.3-9.61
		c1.53-3.34,3.34-6.67,5.41-10.02c2.07-3.34,3.88-6.4,5.41-9.2c1.53-2.8,2.3-5.1,2.3-6.9c0-1.98-0.9-3.61-2.71-4.87
		c-1.81-1.26-3.75-2.21-5.82-2.84c-2.08-0.63-3.48-1.04-4.19-1.22c-0.91,0-1.63,0.45-2.16,1.35c-3.43,4.51-7.49,9.97-12.18,16.38
		c-4.69,6.41-9.61,12.68-14.75,18.81c-5.14,6.14-10.24,11.23-15.29,15.29c-5.05,4.06-9.66,6.09-13.81,6.09
		c-4.15,0-6.23-2.88-6.23-8.66c0-5.05,1.08-10.73,3.25-17.05c2.17-6.31,5.14-12.76,8.93-19.35c3.79-6.59,8.07-12.63,12.86-18.14
		c4.78-5.5,9.79-9.97,15.02-13.4c5.23-3.43,10.37-5.14,15.43-5.14c4.69,0,7.76,1.45,9.2,4.33c1.44,2.89,2.16,6.14,2.16,9.74
		c0,1.81-0.13,3.52-0.41,5.14c-0.27,1.62-0.59,3.25-0.95,4.87c4.69,0.9,8.75,0.27,12.18-1.9c3.43-2.17,5.14-5.68,5.14-10.56
		c0-6.5-2.71-11.73-8.12-15.7c-5.41-3.97-12-5.95-19.76-5.95c-7.4,0-14.8,1.81-22.2,5.41c-7.4,3.61-14.35,8.35-20.84,14.21
		c-6.5,5.87-12.27,12.41-17.32,19.62c-5.05,7.22-9.02,14.53-11.91,21.92c-0.15,0.39-0.28,0.76-0.42,1.15
		c-1.19,1.63-2.4,3.19-3.64,4.67c-5.05,6.05-10.01,10.6-14.89,13.67c-4.87,3.07-9.3,4.6-13.26,4.6c-1.99,0-3.38-0.77-4.2-2.3
		c-0.81-1.53-1.22-4.47-1.22-8.8c0-9.74,1.49-20.16,4.47-31.26c2.98-11.1,6.77-22.37,11.37-33.83c4.6-11.46,9.56-22.64,14.89-33.56
		c5.32-10.92,10.29-21.07,14.89-30.45c4.6-9.38,8.39-17.46,11.37-24.22c2.98-6.77,4.47-11.68,4.47-14.75c0-2.34-0.77-4.28-2.3-5.82
		c-1.53-1.53-3.29-2.3-5.28-2.3c-3.25,0-6.81,2.3-10.69,6.9c-3.88,4.6-7.94,10.78-12.18,18.54c-4.24,7.76-8.53,16.6-12.86,26.53
		c-4.33,9.93-8.66,20.26-12.99,30.99c-4.33,10.74-8.48,21.25-12.45,31.53c-5.78,14.98-12.23,27.84-19.35,38.57
		c-7.13,10.74-14.07,18.95-20.84,24.63c-6.77,5.68-12.59,8.53-17.46,8.53c-2.89,0-5.05-1.04-6.5-3.11
		c-1.45-2.07-2.16-4.83-2.16-8.26c0-4.15,0.9-9.07,2.71-14.75c1.8-5.68,4.37-11.59,7.71-17.73c3.34-6.13,7.26-11.82,11.77-17.05
		c4.51-5.23,9.47-9.52,14.89-12.86c5.41-3.34,11.1-5.01,17.05-5.01c1.98,0,3.88,0.23,5.69,0.68c1.8,0.45,3.07,1.22,3.79,2.3
		c1.44-0.9,2.34-1.94,2.71-3.11c0.36-1.17,0.54-2.21,0.54-3.11c0-3.07-1.18-5.28-3.52-6.63c-2.35-1.35-5.6-2.03-9.74-2.03
		c-7.58,0-15.07,1.9-22.47,5.68c-7.4,3.79-14.39,8.75-20.98,14.89c-6.59,6.14-12.36,12.9-17.32,20.3c-4.96,7.4-8.89,14.8-11.77,22.2
		c-0.61,1.56-1.14,3.09-1.62,4.59c-0.59,0.65-1.18,1.26-1.76,1.77c-3.34,2.98-6.81,4.47-10.42,4.47c-3.43,0-6-1.04-7.71-3.11
		c-1.72-2.07-2.8-4.6-3.25-7.58c-0.45-2.98-0.68-5.73-0.68-8.26c0-7.76,0.72-13.53,2.17-17.32c1.44-3.79,2.89-6.77,4.33-8.93
		c1.44-2.17,2.16-4.6,2.16-7.31c0-2.17-0.81-4.69-2.44-7.58c-1.62-2.88-4.69-4.33-9.2-4.33c-3.97,0-7.22,2.08-9.74,6.23
		c-2.53,4.15-3.97,12.36-4.33,24.63c-2.71,5.95-5.82,12.14-9.34,18.54c-3.52,6.41-7.22,12.36-11.1,17.86
		c-3.88,5.51-7.71,10.01-11.5,13.53c-3.79,3.52-7.31,5.28-10.56,5.28c-2.17,0-3.52-1.31-4.06-3.93c-0.54-2.61-0.81-6.72-0.81-12.32
		c0-5.77,0.22-11.73,0.68-17.86c0.45-6.13,0.68-11.91,0.68-17.32c0-5.23-0.41-8.7-1.22-10.42c-0.81-1.71-3.38-2.57-7.71-2.57
		c-4.69,0-7.54,0.99-8.53,2.98c-0.99,1.99-1.58,5.68-1.76,11.1c-0.22,5.61-0.41,10.45-0.56,14.55c-1.51,2.16-3.21,4.04-5.12,5.61
		c-3.61,2.98-7.31,5.1-11.1,6.36c-3.79,1.26-7.04,1.9-9.74,1.9c-2.89,0-5.41-0.54-7.58-1.62c4.87-7.4,9.07-15.25,12.59-23.55
		c3.52-8.3,5.28-15.79,5.28-22.47c0-5.96-1.58-11.1-4.74-15.43c-3.16-4.33-8.62-6.5-16.37-6.5c-7.22,0-12.95,1.81-17.19,5.41
		c-4.24,3.61-7.31,7.85-9.2,12.72c-1.9,4.87-2.84,9.2-2.84,12.99c0,8.84,1.26,16.38,3.79,22.6c2.52,6.23,6.67,11.96,12.45,17.19
		c-4.33,5.05-8.89,9.52-13.67,13.4c-4.78,3.88-8.89,5.82-12.31,5.82c-3.43,0-5.82-1.17-7.17-3.52c-1.35-2.34-2.03-5.32-2.03-8.93
		c0-3.79,0.54-7.94,1.63-12.45c1.08-4.51,2.57-8.97,4.47-13.4c1.89-4.42,3.97-8.61,6.23-12.59c2.25-3.97,4.47-7.31,6.63-10.02
		c-0.72-0.9-1.94-1.58-3.65-2.03c-1.72-0.45-3.21-0.68-4.47-0.68c-3.97,0-7.89,1.58-11.77,4.74c-3.88,3.16-7.4,7.35-10.56,12.59
		c-3.16,5.24-5.64,10.87-7.44,16.92c-0.35,1.17-0.65,2.34-0.94,3.5c-1.14,1.9-2.32,3.76-3.53,5.56c-4.6,6.86-9.3,12.36-14.07,16.51
		c-4.78,4.15-9.43,6.23-13.94,6.23c-3.43,0-6.41-1.17-8.93-3.52c-2.53-2.34-4.6-5.23-6.23-8.66c-1.62-3.43-2.94-6.94-3.93-10.56
		c-0.99-3.61-1.76-6.58-2.3-8.93c3.07-0.18,6.77-0.9,11.1-2.17c4.33-1.26,8.61-3.2,12.86-5.82c4.24-2.61,7.8-5.91,10.69-9.88
		c2.88-3.97,4.33-8.66,4.33-14.08c0-7.58-2.71-13.89-8.12-18.95c-5.41-5.05-11.73-7.58-18.95-7.58c-6.68,0-12.95,2.08-18.81,6.23
		c-5.87,4.15-11.33,9.61-16.38,16.38c-5.05,6.77-9.65,14.03-13.8,21.79c-4.15,7.76-7.85,15.34-11.1,22.74
		c0.72-8.84,2.44-18.99,5.14-30.45c2.71-11.46,6.58-23.05,11.64-34.78c8.3-4.87,15.88-10.73,22.74-17.59
		c6.86-6.86,12.76-14.12,17.73-21.79c4.96-7.67,8.8-15.25,11.5-22.74c2.71-7.49,4.06-14.3,4.06-20.44c0-5.77-1.04-10.51-3.11-14.21
		c-2.08-3.7-4.65-5.55-7.71-5.55c-3.61,0-8.17,2.89-13.67,8.66c-5.51,5.78-11.41,13.63-17.73,23.55
		c-6.32,9.93-12.54,21.11-18.68,33.56c-6.14,12.45-11.77,25.49-16.92,39.11c-5.14,13.63-9.25,27.02-12.32,40.19
		c-3.07,13.17-4.6,25.26-4.6,36.27c0,6.32,0.58,10.92,1.76,13.8c1.17,2.88,2.61,4.69,4.33,5.41c1.71,0.72,3.2,1.08,4.47,1.08
		c3.43,0,6.04-0.95,7.85-2.84c1.8-1.89,3.7-5.55,5.68-10.96c1.62-4.33,3.65-9.47,6.09-15.43c2.44-5.96,5.23-12.09,8.39-18.41
		c3.15-6.31,6.67-12.18,10.56-17.59c3.88-5.41,8.07-9.79,12.59-13.13c4.51-3.34,9.29-5.01,14.35-5.01c3.79,0,6.72,0.99,8.8,2.98
		c2.07,1.99,3.11,4.6,3.11,7.85c0,3.97-1.31,7.35-3.93,10.15c-2.62,2.8-5.91,5.14-9.88,7.04c-3.97,1.9-7.85,3.38-11.64,4.47
		s-6.95,1.9-9.47,2.44c0,4.15,0.63,9.07,1.9,14.75c1.26,5.68,3.15,11.23,5.68,16.65c2.52,5.41,5.86,9.92,10.01,13.53
		c4.15,3.61,9.02,5.41,14.62,5.41c6.86,0,13.53-2.57,20.03-7.71c5.81-4.6,11.15-10.47,16.02-17.6c0.25,5.64,1.72,10.88,4.42,15.7
		c2.98,5.32,8.53,7.98,16.64,7.98c8.12,0,16.15-2.71,24.09-8.12c7.94-5.41,14.97-11.73,21.11-18.95c1.98,0.72,4.15,1.31,6.5,1.76
		c2.34,0.45,4.69,0.68,7.04,0.68c6.31,0,12.76-2.12,19.35-6.36c2.54-1.63,4.88-3.64,7.03-6.01c-0.09,2.89-0.13,5.04-0.13,6.42
		c0,9.57,1.31,17.37,3.92,23.41c2.61,6.04,7.26,9.07,13.94,9.07c5.77,0,11.64-2.66,17.59-7.98c5.96-5.32,11.68-11.95,17.19-19.89
		c5.5-7.94,10.42-15.97,14.75-24.09c1.98,7.22,4.83,13.22,8.53,18c3.7,4.78,8.53,7.17,14.48,7.17c4.62,0,9.45-1.93,14.51-5.78
		c-0.28,1.99-0.44,3.92-0.44,5.78c0,5.6,1.22,10.2,3.65,13.8c2.44,3.61,5.41,6.27,8.93,7.98c3.52,1.71,6.99,2.57,10.42,2.57
		c5.41,0,11.1-1.81,17.05-5.41c5.95-3.61,12.04-8.61,18.27-15.02c6.23-6.4,12.13-13.67,17.73-21.79c-0.54,2.89-1.04,5.82-1.49,8.8
		c-0.45,2.98-0.68,5.91-0.68,8.8c0,6.32,1.44,11.82,4.33,16.51c2.88,4.69,8.03,7.04,15.43,7.04c6.86,0,13.81-2.12,20.84-6.36
		c5.52-3.33,10.77-7.7,15.73-13.09c-0.01,0.44-0.04,0.88-0.04,1.31c0,7.94,2.21,13.89,6.63,17.86c4.42,3.97,9.61,5.95,15.56,5.95
		c6.86,0,13.3-2.53,19.35-7.58c6.04-5.05,12.68-11.91,19.89-20.57c0,0.18,0,0.36,0,0.54c0,0.18,0,0.45,0,0.81
		c0.36,5.41,2.34,10.47,5.95,15.16c3.61,4.69,9.11,7.04,16.51,7.04c6.85,0,13.62-2.12,20.3-6.36c6.67-4.24,13.03-10.1,19.08-17.59
		c1.55-1.93,3.05-3.93,4.49-6c-0.01,0.42-0.03,0.85-0.03,1.27c0,7.76,1.67,14.48,5.01,20.16c3.34,5.68,9.24,8.53,17.73,8.53
		c10.46,0,20.48-4.65,30.04-13.94c9.56-9.29,18.22-21.97,25.98-38.03l-6.49-3.52c-3.25,7.04-7.08,13.85-11.5,20.44
		c-4.42,6.59-9.02,12-13.8,16.24c-4.78,4.24-9.43,6.36-13.94,6.36c-3.43,0-6.23-1.49-8.39-4.47s-3.25-7.71-3.25-14.21
		c0-3.61,0.31-7.62,0.95-12.04c0.63-4.42,1.31-8.89,2.03-13.4c8.3-6.5,16.1-14.16,23.41-23.01c7.31-8.84,13.98-18.18,20.03-28.01
		c6.04-9.83,11.27-19.44,15.7-28.83c4.42-9.38,7.85-18,10.29-25.85c2.44-7.85,3.65-14.21,3.65-19.08
		C1500,18.77,1499.5,15.66,1498.51,12.32z M873.42,57.38c4.69-8.48,8.97-15.47,12.86-20.98c3.88-5.5,6.72-8.61,8.53-9.34
		c0,0.18,0,0.32,0,0.41c0,0.09,0,0.23,0,0.41c-0.18,6.68-2.21,13.67-6.09,20.98c-3.88,7.31-8.53,14.17-13.94,20.57
		c-5.41,6.41-10.56,11.77-15.43,16.1C864.04,75.24,868.73,65.86,873.42,57.38z M997.92,161.86c-2.53-3.07-4.47-7.31-5.82-12.72
		c-1.35-5.41-2.03-10.02-2.03-13.8c0-7.4,1.8-13.53,5.41-18.41c3.61-4.87,7.13-7.31,10.56-7.31c2.52,0,4.42,0.95,5.68,2.84
		c1.26,1.9,1.9,4.92,1.9,9.07c0,6.14-1.53,12.81-4.6,20.03C1005.95,148.78,1002.26,155.54,997.92,161.86z M1487.55,25.04
		c0,0.09,0,0.23,0,0.41c-0.18,3.61-1.22,8.44-3.11,14.48c-1.9,6.05-4.56,12.86-7.98,20.44c-3.43,7.58-7.44,15.43-12.04,23.55
		c-4.6,8.12-9.66,16.11-15.16,23.95c-5.51,7.85-11.33,15.11-17.46,21.79c3.07-9.74,6.72-19.62,10.96-29.64
		c4.24-10.02,8.66-19.53,13.26-28.56c4.6-9.02,9.07-17.05,13.4-24.09c4.33-7.04,8.07-12.59,11.23-16.65
		c3.15-4.06,5.45-6.09,6.9-6.09C1487.55,24.81,1487.55,24.95,1487.55,25.04z"/>
	<polygon points="433.35,277.01 377,277.01 377,292.47 395.1,292.47 395.1,346.96 415.25,346.96 415.25,292.47 433.35,292.47 	"/>
	<path d="M457.71,294.43c-13.99,0-23.67,6.07-24.46,18.39h16.44c0.39-3.23,2.15-6.07,6.95-6.07c5.58,0,6.75,3.23,6.75,8.12v1.17
		h-4.89c-17.02,0-27.2,4.7-27.2,16.73c0,10.86,8.12,15.36,17.32,15.36c8.22,0,12.72-3.42,15.16-7.14v5.97h17.02V313.8
		C480.8,300.2,471.8,294.43,457.71,294.43z M463.39,329.06c0,4.4-3.72,7.24-8.71,7.24c-4.11,0-6.07-1.86-6.07-4.79
		c0-4.21,3.13-5.58,10.17-5.58h4.6V329.06z"/>
	<path d="M512.99,314.09c-6.26-0.78-8.61-1.76-8.61-4.21c0-2.35,1.96-4.01,5.77-4.01c4.01,0,5.87,1.66,6.55,5.09h15.85
		c-1.17-12.23-9.98-16.53-22.6-16.53c-11.84,0-21.91,5.48-21.91,16.83c0,10.66,5.77,14.67,19.47,16.44c7.04,0.98,9.49,2.15,9.49,4.6
		c0,2.55-1.96,4.21-6.26,4.21c-4.99,0-6.65-2.05-7.24-5.77h-16.14c0.39,11.35,8.9,17.41,23.48,17.41c14.19,0,23.19-5.48,23.19-17.61
		C534.02,319.57,527.17,315.85,512.99,314.09z"/>
	<polygon points="590.67,295.8 572.47,295.8 558.68,316.05 558.68,273.3 541.16,273.3 541.16,346.96 558.68,346.96 558.68,324.56 
		572.47,346.96 592.04,346.96 573.94,318.79 	"/>
	<path d="M652.79,322.31h13.11c-0.39,5.58-4.11,10.57-13.89,10.57c-12.13,0-16.34-8.81-16.34-20.15v-0.78
		c0-12.62,5.97-20.25,15.85-20.25c7.43,0,11.64,3.42,12.62,9.98H684c-1.37-18.2-16.04-25.73-32.58-25.73
		c-21.03,0-36.69,14.38-36.69,35.71v0.78c0,20.94,12.91,35.71,36.69,35.71c22.6,0,34.24-13.4,34.24-31.21v-8.61h-32.87V322.31z"/>
	<path d="M718.83,294.43c-15.46,0-27.69,10.37-27.69,26.81v0.78c0,16.73,11.74,26.12,27.78,26.12c15.46,0,24.36-6.56,25.93-18.1
		h-16.44c-0.68,3.42-3.13,6.07-8.9,6.07c-6.26,0-10.17-3.91-10.66-10.66h36v-4.6C744.85,302.45,732.82,294.43,718.83,294.43z
		 M709.04,315.56c0.88-6.16,4.5-9.59,9.78-9.59c5.67,0,8.71,3.42,9,9.59H709.04z"/>
	<path d="M786.72,294.43c-8.51,0-14.09,4.31-16.83,9.59v-8.22h-17.51v51.17h17.51V318.3c0-6.55,3.52-9.68,8.71-9.68
		c5.09,0,7.34,2.84,7.34,8.61v29.74h17.51V313.7C803.45,300.59,796.6,294.43,786.72,294.43z"/>
	<path d="M838.38,294.43c-15.46,0-27.69,10.37-27.69,26.81v0.78c0,16.73,11.74,26.12,27.78,26.12c15.46,0,24.36-6.56,25.93-18.1
		h-16.44c-0.68,3.42-3.13,6.07-8.9,6.07c-6.26,0-10.17-3.91-10.66-10.66h36v-4.6C864.4,302.45,852.37,294.43,838.38,294.43z
		 M828.59,315.56c0.88-6.16,4.5-9.59,9.78-9.59c5.67,0,8.71,3.42,9,9.59H828.59z"/>
	<path d="M889.45,305.97V295.8h-17.51v51.17h17.51V322.7c0-8.22,5.87-11.54,16.53-11.25v-16.34
		C898.06,295.01,892.68,298.34,889.45,305.97z"/>
	<path d="M936.11,294.43c-13.99,0-23.67,6.07-24.46,18.39h16.44c0.39-3.23,2.15-6.07,6.95-6.07c5.58,0,6.75,3.23,6.75,8.12v1.17
		h-4.89c-17.02,0-27.2,4.7-27.2,16.73c0,10.86,8.12,15.36,17.32,15.36c8.22,0,12.72-3.42,15.16-7.14v5.97h17.02V313.8
		C959.2,300.2,950.2,294.43,936.11,294.43z M941.79,329.06c0,4.4-3.72,7.24-8.71,7.24c-4.11,0-6.07-1.86-6.07-4.79
		c0-4.21,3.13-5.58,10.18-5.58h4.6V329.06z"/>
	<path d="M988.75,328.86v-21.13h10.08V295.8h-10.08v-10.66h-17.51v10.66h-6.16v11.94h6.16v22.79c0,12.03,6.46,17.61,18,17.61
		c4.11,0,7.44-0.88,9.69-1.47v-13.3c-1.57,0.59-3.03,0.88-4.99,0.88C990.61,334.24,988.75,332.58,988.75,328.86z"/>
	<path d="M1032.28,294.43c-15.85,0-28.08,10.37-28.08,26.81v0.78c0,16.53,12.23,26.12,27.98,26.12c15.75,0,27.98-9.98,27.98-26.61
		v-0.78C1060.16,304.5,1048.03,294.43,1032.28,294.43z M1042.36,321.72c0,8.51-3.52,13.4-10.08,13.4c-6.75,0-10.18-4.79-10.18-13.6
		v-0.78c0-8.61,3.62-13.21,10.18-13.21c6.65,0,10.08,4.79,10.08,13.4V321.72z"/>
	<path d="M1085.31,305.97V295.8h-17.51v51.17h17.51V322.7c0-8.22,5.87-11.54,16.53-11.25v-16.34
		C1093.92,295.01,1088.54,298.34,1085.31,305.97z"/>
</g>
</svg>
