<?xml version="1.0" encoding="utf-8"?>
<!-- Generator: Adobe Illustrator 25.0.0, SVG Export Plug-In . SVG Version: 6.00 Build 0)  -->
<svg version="1.1" id="Layer_1" xmlns="http://www.w3.org/2000/svg" xmlns:xlink="http://www.w3.org/1999/xlink" x="0px" y="0px"
	 viewBox="0 0 1662.7 762.91" style="enable-background:new 0 0 1662.7 762.91;" xml:space="preserve">
<style type="text/css">
	.st0{fill:#FEDFED;}
</style>
<g id="Group_28" transform="translate(-254.602 -876.407)">
	<g id="Group_19" transform="translate(254.602 876.407)">
		<g id="Group_17" transform="translate(182.768 2.625)">
			<path id="Path_13" class="st0" d="M761.41,499.66c0,0,79.11-50.98,101.96-179.32c24.62-109,91.44-200.41,242.6-254.9
				c145.91-43.95,228.54-45.71,314.68-54.5c-35.22,25.61-150.64,80.39-237.36,107.23c-27.49,8.36-53.78,20.25-78.22,35.36
				c-53.15,33.21-104.57,85.95-152.04,201.99C921.39,406.48,879.2,450.43,761.41,499.66z"/>
			<path id="Path_14" class="st0" d="M1054.94,270.93c23.54-24.53,149.35-113.22,400.14-165.94
				c-44.94,66.28-201.15,152.96-397.13,172.03c-1.99,0.22-3.77-1.22-3.98-3.21C1053.85,272.76,1054.2,271.7,1054.94,270.93z"/>
			<path id="Path_15" class="st0" d="M1479.93,191.03c0,0-80.89,111.04-275.86,183.94c-21.47,8.07-43.89,13.33-66.71,15.66
				c-56.87,5.68-102.36,2.22-129.67-11.19c-7.82-3.87-11.02-13.35-7.15-21.17c0.51-1.04,1.14-2.02,1.87-2.92
				c11.24-13.72,38.36-26.27,66.12-30.69C1108.28,318.3,1334.02,282.44,1479.93,191.03z"/>
		</g>
		<g id="Group_18" transform="translate(0 2.625)">
			<path id="Path_16" class="st0" d="M718.53,499.66c0,0-79.11-50.98-101.94-179.32c-24.61-109-91.41-200.41-242.6-254.9
				C228.08,21.48,145.45,19.72,59.32,10.94c35.22,25.61,150.63,80.39,237.36,107.23c27.49,8.36,53.78,20.25,78.22,35.36
				c53.15,33.21,104.57,85.95,152.04,201.99C558.55,406.48,600.75,450.43,718.53,499.66z"/>
			<path id="Path_17" class="st0" d="M425.01,270.93c-23.56-24.51-149.35-113.22-400.15-165.94
				c44.94,66.28,201.15,152.96,397.13,172.03c1.98,0.22,3.77-1.21,4-3.19C426.1,272.77,425.74,271.71,425.01,270.93z"/>
			<path id="Path_18" class="st0" d="M0,191.03c0,0,80.9,111.04,275.86,183.94c21.48,8.07,43.92,13.33,66.74,15.66
				c56.87,5.68,102.36,2.22,129.67-11.19c7.82-3.87,11.02-13.35,7.15-21.17c-0.51-1.04-1.14-2.02-1.87-2.92
				c-11.24-13.72-38.36-26.27-66.15-30.69C371.67,318.3,145.93,282.44,0,191.03z"/>
		</g>
		<path id="Path_19" class="st0" d="M831.33,0c-99.46,0.01-180.08,80.66-180.07,180.12s80.66,180.08,180.12,180.07
			c99.46-0.01,180.08-80.65,180.07-180.12C1011.46,80.63,930.84,0.01,831.4,0C831.38,0,831.35,0,831.33,0z M958.67,180.07
			c0,5.64-0.38,11.27-1.14,16.85c-0.33,2.3-2.47,3.9-4.78,3.57c-0.13-0.02-0.26-0.04-0.39-0.08l-48.01-11.06
			c-7.97-1.85-15.58-4.99-22.52-9.3c6.95-4.31,14.56-7.45,22.52-9.3l48.01-11.06c2.27-0.54,4.55,0.86,5.09,3.12
			c0.03,0.12,0.05,0.25,0.07,0.37C958.29,168.8,958.67,174.43,958.67,180.07z M923.54,267.9c-1.63,1.67-4.31,1.7-5.98,0.07
			c-0.09-0.09-0.17-0.18-0.25-0.27l-32.33-37.15c-5.36-6.17-9.68-13.17-12.77-20.74c8.15,0.6,16.15,2.54,23.68,5.73l45.34,19.27
			c2.16,0.9,3.17,3.38,2.27,5.54c-0.05,0.12-0.1,0.23-0.16,0.34c-5.37,9.9-12.02,19.04-19.79,27.18L923.54,267.9z M719.34,240.67
			c-1.09-2.07-0.3-4.63,1.77-5.72c0.11-0.06,0.22-0.11,0.33-0.16l45.36-19.28c7.52-3.19,15.52-5.13,23.68-5.73
			c-3.09,7.57-7.41,14.57-12.77,20.74l-32.33,37.16c-1.53,1.77-4.2,1.97-5.97,0.45c-0.09-0.08-0.18-0.16-0.26-0.24
			C731.37,259.72,724.71,250.57,719.34,240.67z M703.99,180.07c0.01-5.63,0.38-11.26,1.14-16.84c0.34-2.31,2.48-3.9,4.79-3.57
			c0.13,0.02,0.25,0.04,0.38,0.07l48.04,11.06c7.97,1.85,15.57,4.99,22.52,9.3c-6.95,4.31-14.56,7.45-22.52,9.3l-48.04,11.06
			c-2.26,0.55-4.54-0.84-5.09-3.1c-0.03-0.13-0.06-0.26-0.08-0.39C704.37,191.37,703.99,185.73,703.99,180.07L703.99,180.07z
			 M739.12,92.29c1.64-1.67,4.32-1.7,5.99-0.06c0.09,0.08,0.17,0.17,0.24,0.26l32.35,37.14c5.36,6.17,9.68,13.18,12.77,20.75
			c-8.15-0.6-16.15-2.54-23.68-5.73l-45.36-19.28c-2.16-0.91-3.17-3.39-2.26-5.55c0.05-0.11,0.1-0.22,0.15-0.33
			c5.37-9.9,12.02-19.04,19.79-27.2L739.12,92.29z M943.33,119.5c1.09,2.07,0.29,4.63-1.78,5.72c-0.11,0.06-0.22,0.11-0.34,0.16
			l-45.34,19.27c-7.52,3.19-15.52,5.13-23.68,5.73c3.09-7.57,7.41-14.58,12.77-20.75l32.33-37.15c1.53-1.77,4.2-1.97,5.97-0.44
			c0.09,0.08,0.18,0.16,0.26,0.24c7.77,8.16,14.43,17.3,19.81,27.21L943.33,119.5z M862.74,113.48
			c-4.21,7.01-9.54,13.28-15.78,18.56c-1.94-7.94-2.57-16.14-1.86-24.28l4.32-49.08c0.2-2.33,2.24-4.06,4.58-3.87
			c0.12,0.01,0.24,0.02,0.35,0.04c11.09,2.02,21.86,5.52,32.03,10.4c2.09,1.04,2.95,3.58,1.91,5.67c-0.05,0.11-0.11,0.21-0.17,0.32
			L862.74,113.48z M817.6,107.75c0.71,8.14,0.09,16.34-1.86,24.28c-6.24-5.28-11.57-11.55-15.78-18.56l-25.36-42.26
			c-1.21-2-0.58-4.6,1.42-5.81c0.1-0.06,0.21-0.12,0.32-0.17c10.16-4.88,20.94-8.39,32.03-10.41c2.31-0.39,4.5,1.17,4.88,3.48
			c0.02,0.12,0.03,0.23,0.04,0.35L817.6,107.75z M799.93,246.68c4.21-7.01,9.54-13.28,15.78-18.56c1.95,7.94,2.57,16.14,1.86,24.28
			l-4.31,49.08c-0.2,2.34-2.25,4.07-4.59,3.87c-0.11-0.01-0.23-0.02-0.34-0.04c-11.09-2.02-21.86-5.52-32.03-10.4
			c-2.09-1.04-2.95-3.59-1.91-5.68c0.05-0.11,0.11-0.21,0.17-0.31L799.93,246.68z M845.07,252.42c-0.71-8.14-0.08-16.34,1.86-24.28
			c6.24,5.28,11.57,11.55,15.78,18.56l25.36,42.25c1.21,2,0.57,4.61-1.43,5.82c-0.1,0.06-0.2,0.12-0.31,0.17
			c-10.16,4.88-20.94,8.38-32.03,10.4c-2.31,0.39-4.5-1.17-4.89-3.47c-0.02-0.12-0.03-0.23-0.04-0.35L845.07,252.42z"/>
	</g>
	<g id="Group_20" transform="translate(364.837 987.24)">
		<path id="Path_20" class="st0" d="M557.63,652.08l-61.99-171.42c-2.72-7.77-5.73-12.44-9.02-13.99s-12.43-2.34-27.38-2.34v-2.62
			h105.95v2.62c-9.21-0.34-18.43,0.3-27.51,1.9c-4.95,1.26-7.42,3.85-7.42,7.75c0.15,2.3,0.64,4.56,1.46,6.72l45.7,123.09
			l30.9-91.88c2.81-7.89,4.47-16.14,4.91-24.5c0-15.36-9.99-23.05-29.96-23.05v-2.62h75.4v2.62c-15.65-0.65-30.1,8.38-36.38,22.73
			c-2.32,4.86-5.79,13.89-10.42,27.11l-46.06,137.88H557.63z M734.59,480.12v150.1c-0.27,3.64,0.13,7.3,1.16,10.8
			c0.88,1.13,2.1,1.95,3.49,2.34c5.63,2.14,17.17,3.21,34.64,3.21v2.93H659.2v-2.91c8.34,0,15.58-0.29,21.7-0.87
			c4.25-0.24,8.45-0.99,12.53-2.22c1.78-0.53,3.33-1.67,4.37-3.21c0.94-3.27,1.29-6.68,1.03-10.07V480.12
			c0.28-3.45-0.11-6.92-1.16-10.22c-0.39-0.78-1.65-1.56-3.78-2.34c-5.63-2.14-17.17-3.21-34.64-3.21v-2.62H774.2v2.62
			c-8.34,0-15.58,0.29-21.7,0.87c-4.4,0.25-8.74,1.04-12.95,2.33l-2.91,1.17C735.28,469.89,734.59,473.69,734.59,480.12z
			 M858.89,561.86h29.52c16.19,0,27.49-4.18,33.9-12.55c5.46-7.2,8.18-18.69,8.18-34.45c0-16.53-3.6-29.08-10.81-37.66
			c-7.21-8.58-18.31-12.86-33.32-12.85h-14.02c-3.05-0.11-6.09,0.18-9.06,0.87c-1.8,0.44-3.21,1.85-3.65,3.65
			c-0.63,3.71-0.88,7.48-0.73,11.24L858.89,561.86z M858.89,564.48v65.72c-0.27,3.64,0.13,7.31,1.16,10.81
			c0.39,0.78,1.75,1.61,4.08,2.48c4.46,1.25,9.05,1.98,13.68,2.19c6.79,0.58,16.11,0.87,27.94,0.87v2.93H780.02v-2.91
			c9.9,0,18.1-0.29,24.6-0.87c4.48-0.22,8.93-0.96,13.25-2.19c2.33-0.87,3.69-1.7,4.08-2.48c1.03-3.5,1.43-7.16,1.16-10.8V480.12
			c0.25-3.45-0.15-6.91-1.16-10.22c-0.88-1.14-2.11-1.96-3.49-2.34c-6.02-2.14-18.82-3.21-38.42-3.21v-2.62h112.94
			c23.09,0,41.33,5.34,54.72,16.01c12.28,9.4,19.32,24.12,18.92,39.59c-0.3,11.71-5.59,22.73-14.55,30.27
			c-12.03,11.25-28.33,16.88-48.9,16.88L858.89,564.48z"/>
	</g>
</g>
</svg>
